<svg width="458" height="184" viewBox="0 0 458 184" fill="none" xmlns="http://www.w3.org/2000/svg">
<path d="M190.432 60.9161V60.7035H211.408V60.9161C208.932 62.0144 207.343 63.6798 206.641 65.9115C205.938 68.108 205.587 71.0312 205.587 74.6806V106.566C205.587 114.928 207.243 121.498 210.555 126.283C213.867 131.031 219.12 133.405 226.312 133.405C229.725 133.405 232.853 132.853 235.697 131.759C238.574 130.623 241.049 128.941 243.124 126.706C245.231 124.44 246.854 121.679 247.992 118.417C249.162 115.158 249.748 111.385 249.748 107.098V76.2748C249.748 72.1295 249.079 68.8166 247.741 66.3367C246.403 63.8212 244.512 62.0144 242.07 60.9161V60.7035H260.337V60.9161C257.861 62.0144 255.954 63.8212 254.616 66.3367C253.311 68.8522 252.659 72.1651 252.659 76.2748V107.736C252.659 112.589 251.973 116.91 250.601 120.704C249.23 124.461 247.323 127.609 244.88 130.164C242.438 132.713 239.561 134.664 236.249 136.006C232.937 137.317 229.357 137.972 225.51 137.972C216.109 137.972 208.882 135.407 203.83 130.267C198.812 125.132 196.303 117.55 196.303 107.523V74.6806C196.303 71.0668 195.935 68.1436 195.199 65.9115C194.497 63.6798 192.907 62.0144 190.432 60.9161ZM211.96 46.5674C211.96 44.8312 212.512 43.3257 213.616 42.0499C214.754 40.7746 216.209 40.1367 217.982 40.1367C219.688 40.1367 221.127 40.7746 222.298 42.0499C223.469 43.3257 224.054 44.8312 224.054 46.5674C224.054 48.3743 223.469 49.9154 222.298 51.1906C221.127 52.4665 219.688 53.1038 217.982 53.1038C216.209 53.1038 214.754 52.4665 213.616 51.1906C212.512 49.9154 211.96 48.3743 211.96 46.5674ZM230.327 46.5674C230.327 44.8312 230.93 43.3257 232.134 42.0499C233.338 40.7746 234.793 40.1367 236.5 40.1367C238.206 40.1367 239.644 40.7746 240.816 42.0499C241.986 43.3257 242.572 44.8312 242.572 46.5674C242.572 48.3743 241.986 49.9154 240.816 51.1906C239.644 52.4665 238.206 53.1038 236.5 53.1038C234.793 53.1038 233.338 52.4665 232.134 51.1906C230.93 49.9154 230.327 48.3743 230.327 46.5674Z" fill="#302A23"/>
<path d="M267.568 136.784V136.578C270.049 135.51 271.959 133.774 273.3 131.361C274.641 128.918 275.312 125.683 275.312 121.649V76.2996C275.312 72.7872 274.943 69.9459 274.206 67.7764C273.501 65.6073 271.909 63.9885 269.429 62.921V62.7144H285.719L311.563 122.738L335.646 62.7144H350.881V62.921C348.401 63.9885 346.791 65.6073 346.054 67.7764C345.35 69.9113 344.998 72.7526 344.998 76.2996V122.944C344.998 126.455 345.534 129.349 346.607 131.622C347.68 133.859 349.456 135.51 351.937 136.578V136.784H329.16V136.578C331.641 135.51 333.401 133.859 334.44 131.622C335.512 129.349 336.049 126.455 336.049 122.944V68.8614L308.345 137.973H307.943L278.177 68.8614V121.649C278.177 125.683 278.848 128.918 280.189 131.361C281.529 133.774 283.44 135.51 285.92 136.578V136.784H267.568Z" fill="#302A23"/>
<path d="M359.168 137.973V137.764C361.728 136.678 363.372 135.052 364.098 132.886C364.86 130.679 365.241 127.794 365.241 124.226V76.5177C365.241 72.9488 364.86 70.062 364.098 67.8576C363.372 65.6537 361.728 64.009 359.168 62.9243V62.7144H380.863V62.9243C378.302 64.009 376.641 65.6537 375.88 67.8576C375.154 70.0268 374.79 72.9137 374.79 76.5177V124.226C374.79 127.794 375.154 130.679 375.88 132.886C376.641 135.052 378.302 136.678 380.863 137.764V137.973H359.168Z" fill="#302A23"/>
<path d="M388.095 82.5482L391.547 60.2056C392.081 60.5634 392.798 60.7783 393.699 60.8497C394.6 60.9217 395.534 60.9572 396.501 60.9572H449.593C450.56 60.9572 451.479 60.9217 452.344 60.8497C453.247 60.7783 453.962 60.5634 454.496 60.2056L458 82.5482H457.747C456.115 79.4688 454.613 76.7654 453.247 74.4381C451.877 72.0748 450.395 70.1058 448.791 68.5301C447.193 66.9549 445.389 65.773 443.388 64.9854C441.419 64.1618 439.001 63.7503 436.132 63.7503H427.625V124.761C427.625 128.417 428.076 131.223 428.976 133.195C429.877 135.13 431.545 136.648 433.98 137.759V137.972H412.063V137.759C414.532 136.648 416.2 135.13 417.067 133.195C417.968 131.26 418.418 128.448 418.418 124.761V63.7503H409.911C407.043 63.7503 404.608 64.1618 402.606 64.9854C400.638 65.773 398.853 66.9549 397.252 68.5301C395.651 70.1058 394.166 72.0748 392.798 74.4381C391.431 76.7654 389.93 79.4688 388.295 82.5482H388.095Z" fill="#302A23"/>
<path fill-rule="evenodd" clip-rule="evenodd" d="M161.505 80.5602L161.502 81.207C161.377 95.3562 157.131 108.791 149.726 119.985C140.676 134.214 127.041 144.826 111.067 149.332L90.555 157.237L81.3559 183.128L72.1568 157.237L53.9226 150.21C36.4486 146.336 21.4777 135.236 11.7755 119.981C4.37294 108.788 0.1287 95.3544 0.00302104 81.207L0 80.5602V0C26.1442 0 47.3383 22.073 47.3387 49.3015V139.775C51.196 141.279 55.2354 142.366 59.409 142.988L72.1568 138.076L81.3559 112.184L90.555 138.076L102.954 142.853C106.823 142.215 110.574 141.176 114.167 139.775V49.3015C114.167 22.073 135.361 0 161.505 0V80.5602ZM76.9016 143.018L64.8636 147.656L76.9016 152.296L81.3559 164.832L85.8106 152.296L97.8482 147.656L85.8106 143.018L81.3559 130.48L76.9016 143.018ZM27.5645 111.239C27.5645 120.902 31.3142 130.569 39.5483 135.023V49.3015C39.5483 37.7172 34.9563 27.2495 27.5645 19.7659V111.239ZM133.941 19.7654C126.549 27.2491 121.957 37.7167 121.957 49.3015V135.023C130.191 130.569 133.941 120.901 133.941 111.238V19.7654ZM7.78993 78.9684C7.78993 92.4524 11.6085 104.945 18.1274 115.282C18.6581 116.087 19.2073 116.88 19.7742 117.658V26.5744C19.7742 18.5596 15.743 10.6591 8.21387 9.00279L7.78993 8.91223V78.9684ZM153.715 8.91223C145.907 10.5367 141.731 18.7308 141.731 27.024V117.658C142.297 116.882 142.844 116.091 143.373 115.288C149.894 104.95 153.715 92.4556 153.715 78.9684V8.91223Z" fill="#302A23"/>
</svg>
