<svg width="116" height="79" viewBox="0 0 116 79" fill="none" xmlns="http://www.w3.org/2000/svg">
<path fill-rule="evenodd" clip-rule="evenodd" d="M8.47214 0.204968C8.79496 0.14844 9.30883 0.0929117 10.0782 0.0314231C10.5772 -0.00845402 12.3872 -0.00980109 12.9692 0.0292685C14.0065 0.0989094 14.6081 0.1514 15.017 0.208005C15.2488 0.240114 15.565 0.282301 15.7196 0.301758C15.8742 0.321216 16.082 0.355439 16.1814 0.37782C16.2808 0.4002 16.5337 0.451653 16.7435 0.492145C17.9056 0.716411 18.6915 0.929333 19.8352 1.32991C20.5391 1.57644 21.6305 2.04674 21.9934 2.25989L22.1239 2.33657V6.31975V10.3029L22.0336 10.2756C21.9839 10.2605 21.8873 10.2074 21.819 10.1576C21.7507 10.1078 21.6751 10.067 21.6512 10.067C21.6273 10.067 21.5831 10.0454 21.5531 10.0189C21.523 9.99252 21.463 9.95199 21.4197 9.92892C21.3764 9.90585 21.2325 9.82882 21.1 9.75776C20.7936 9.59341 19.7392 9.09611 19.5542 9.02862C19.4769 9.00044 19.3956 8.96468 19.3735 8.94914C19.3145 8.90765 18.6735 8.67404 18.189 8.51749C16.4675 7.96125 15.0681 7.72348 13.1499 7.6613C11.5071 7.60808 10.5589 7.78724 10.1311 8.23162C9.79062 8.58544 9.79202 9.13057 10.1344 9.48431C10.2448 9.59848 10.5969 9.8514 10.821 9.97764C11.312 10.2541 12.0924 10.5371 13.3506 10.8949C13.5494 10.9513 13.8204 11.0289 13.9529 11.0671C14.0854 11.1054 14.3565 11.1813 14.5552 11.2358C14.754 11.2903 15.0792 11.3798 15.278 11.4346C15.9915 11.6314 17.2958 12.0724 17.7875 12.2832C18.9165 12.7672 19.5217 13.0713 20.2769 13.5342C21.0746 14.0232 21.7538 14.5752 22.2326 15.1238C22.4729 15.3991 22.9671 16.1008 22.9671 16.1667C22.9671 16.1923 22.9828 16.2191 23.0019 16.2261C23.066 16.2497 23.4401 17.0491 23.6036 17.5118C23.9682 18.5432 24.1003 19.6444 24.0151 20.9402C23.9596 21.7849 23.8679 22.3357 23.6527 23.1178C23.3893 24.0749 22.807 25.1679 22.1855 25.8715C22.0003 26.0812 21.2782 26.7624 21.105 26.8908C20.8052 27.113 20.3322 27.4297 20.2148 27.4868C20.1495 27.5185 20.0872 27.5554 20.0762 27.5689C20.0173 27.6408 18.757 28.2175 18.6587 28.2175C18.63 28.2175 18.5894 28.2325 18.5684 28.2509C18.4945 28.3157 17.4732 28.6172 16.7864 28.7771C16.6442 28.8102 16.559 28.829 16.5582 28.8509C16.5569 28.8826 16.7317 28.9208 17.1651 29.018C17.67 29.1312 18.2257 29.2726 18.3496 29.3194C18.3827 29.3319 18.5995 29.4075 18.8314 29.4873C19.4213 29.6902 19.6161 29.7717 20.2568 30.0835C21.04 30.4645 21.8215 30.9468 22.3426 31.3706C22.704 31.6646 22.8571 31.7996 23.1478 32.081C24.1176 33.0196 24.7947 33.932 25.4318 35.1585C25.701 35.6768 26.0187 36.3991 26.0187 36.4929C26.0187 36.5225 26.0349 36.5631 26.0548 36.5832C26.095 36.6239 26.1999 36.9589 26.3972 37.6772C26.5884 38.3734 26.6225 38.5214 26.7064 39.0183C26.8987 40.1584 26.9175 40.4355 26.9171 42.1379C26.9167 43.8094 26.9002 44.0687 26.7241 45.1566C26.6031 45.9041 26.2362 47.3035 26.0586 47.6946C26.0394 47.7369 26.0115 47.8148 25.9964 47.8676C25.9182 48.1434 25.4335 49.1486 25.0973 49.7327C24.9264 50.0294 24.4489 50.7286 24.4057 50.7453C24.3874 50.7524 24.3724 50.7737 24.3724 50.7928C24.3724 50.8363 24.0215 51.2727 23.7074 51.6198C22.6777 52.7577 21.4711 53.6359 20.0069 54.3131C19.7149 54.4482 19.4608 54.5587 19.4423 54.5587C19.4238 54.5587 19.3375 54.5914 19.2505 54.6314C18.9096 54.7881 17.3549 55.2518 17.1725 55.2511C17.1324 55.251 17.0673 55.2675 17.0278 55.2877C16.9308 55.3374 16.1698 55.4687 15.4586 55.5585C15.1384 55.5989 14.7319 55.6538 14.5552 55.6805C14.3079 55.7178 12.5971 55.7318 7.11699 55.7412L0 55.7534V42.12V28.4866H2.45732C3.85795 28.4866 4.89822 28.4722 4.8765 28.4531C4.85554 28.4347 4.70284 28.3886 4.53721 28.3508C4.37158 28.313 4.20896 28.269 4.17584 28.2531C4.14271 28.2372 3.92589 28.1685 3.69401 28.1005C3.46213 28.0325 3.1911 27.9463 3.09173 27.9088C2.99235 27.8714 2.78456 27.7939 2.62998 27.7366C2.47539 27.6793 2.27664 27.6012 2.1883 27.563C2.09997 27.5248 1.91025 27.4469 1.7667 27.3898C1.50479 27.2857 0.994613 27.0466 0.451713 26.7734L0.160609 26.6268V22.4423C0.160609 20.0675 0.175867 18.2578 0.195863 18.2578C0.215216 18.2578 0.253562 18.2837 0.281066 18.3155C0.30857 18.3472 0.348643 18.3732 0.370125 18.3732C0.391606 18.3732 0.465807 18.4121 0.53503 18.4597C0.604212 18.5072 0.692346 18.5635 0.730892 18.5846C0.769398 18.6058 0.950446 18.7096 1.13322 18.8153C1.31603 18.9211 1.51976 19.0346 1.58602 19.0676C1.65227 19.1006 1.80585 19.1805 1.92731 19.2452C2.39926 19.4963 3.05238 19.8018 3.67394 20.0621C3.78435 20.1084 3.91083 20.1619 3.955 20.1811C4.09027 20.2398 4.77479 20.4881 4.80129 20.4881C4.81502 20.4881 4.88316 20.5113 4.95275 20.5396C5.14492 20.6178 5.90741 20.8423 6.4846 20.9907C8.87241 21.6045 12.3689 21.6951 13.4309 21.1707C13.8201 20.9786 14.0934 20.577 14.0934 20.1973C14.0935 19.8299 13.7348 19.3989 13.1686 19.0862C12.8665 18.9192 12.3537 18.681 12.2956 18.6806C12.2796 18.6804 12.2177 18.6559 12.158 18.6261C11.9793 18.5368 11.1064 18.2694 10.3994 18.0873C9.28518 17.8003 9.19275 17.7737 8.45206 17.5272C8.06925 17.3998 7.26716 17.1055 7.08688 17.0264C7.04271 17.007 6.86669 16.9389 6.69572 16.8751C6.52475 16.8113 6.3531 16.7419 6.31427 16.7208C6.27544 16.6997 6.09913 16.62 5.92246 16.5436C4.86939 16.0883 3.39861 15.301 2.97151 14.964C2.36103 14.4823 1.82448 13.9492 1.45267 13.4551C1.08624 12.9682 0.530491 11.9854 0.458338 11.6969C0.44308 11.6359 0.417062 11.5687 0.400479 11.5475C0.359082 11.4947 0.209074 11.0038 0.106726 10.5861C0.0276657 10.2635 0.0218433 10.1317 0.0210001 8.6442C0.0201167 7.14771 0.0254557 7.02562 0.106483 6.68303C0.371448 5.563 0.696321 4.83341 1.3131 3.97326C1.60067 3.57218 2.07575 3.06263 2.44455 2.75968C2.58549 2.6439 2.721 2.53077 2.7457 2.50827C2.83977 2.42255 3.40548 2.03382 3.69401 1.85666C4.2865 1.49284 5.25015 1.05335 6.04292 0.78536C6.57526 0.605432 7.47724 0.371013 7.90458 0.301526C8.02901 0.281299 8.28442 0.237846 8.47214 0.204968ZM63.28 1.11884C65.0484 0.48457 66.4718 0.201314 68.7407 0.0322305C69.3054 -0.00983852 71.0986 -0.0109926 71.6518 0.0303458C73.402 0.161244 73.9824 0.24473 75.3056 0.556056C76.5932 0.859 77.8398 1.32264 78.8792 1.88527C79.2214 2.0705 80.1338 2.63321 80.3397 2.78603C81.0518 3.3145 81.984 4.15531 82.435 4.67579C83.3993 5.78873 83.8693 6.46641 84.4406 7.56748C84.8431 8.34329 85.0985 8.98648 85.4637 10.1439C85.5869 10.5344 85.8294 11.6932 85.8822 12.1435C85.9033 12.3233 85.9443 12.6521 85.9734 12.8742C86.0081 13.1392 86.0263 13.7406 86.0263 14.6239C86.0263 15.5071 86.0081 16.1085 85.9734 16.3735C85.9443 16.5956 85.9033 16.9244 85.8822 17.1042C85.8412 17.4547 85.7773 17.7873 85.6165 18.4885C85.2648 20.0216 84.6348 21.51 83.7773 22.8339C83.606 23.0982 83.4545 23.3232 83.4408 23.3338C83.427 23.3443 83.363 23.4309 83.2986 23.526C83.0411 23.9068 82.342 24.6922 81.7585 25.2565C81.1359 25.8584 80.8842 26.0722 80.3675 26.4379C80.2114 26.5483 80.0655 26.6533 80.0431 26.6712C80.0207 26.6891 79.8852 26.7755 79.7419 26.8632C79.5987 26.9509 79.4618 27.0386 79.4378 27.0581C79.3689 27.1142 78.7941 27.4191 78.3974 27.6101C76.9291 28.3168 75.3387 28.7856 73.5992 29.0242C72.8186 29.1313 72.4588 29.1732 72.0834 29.2009C71.9012 29.2143 71.7522 29.2317 71.7522 29.2395C71.7522 29.252 71.8975 29.4772 72.234 29.9861C72.5337 30.4394 73.5895 32.0229 74.0033 32.6397C74.2657 33.031 74.5216 33.4153 74.5719 33.4937C74.6221 33.5721 74.7768 33.8057 74.9157 34.0128C75.0545 34.22 75.19 34.424 75.2167 34.4663C75.2434 34.5086 75.306 34.5983 75.3557 34.6656C75.4055 34.7329 75.4462 34.7973 75.4462 34.8086C75.4462 34.8198 75.5511 34.9811 75.6793 35.1668C75.8076 35.3526 76.1102 35.803 76.3519 36.1679C76.8219 36.8775 77.4439 37.8136 78.1814 38.9211C78.4327 39.2985 78.6563 39.6363 78.6784 39.6717C78.7005 39.7072 78.7592 39.7904 78.8089 39.8566C78.8586 39.9229 78.8993 39.9886 78.8993 40.0026C78.8993 40.0166 78.9444 40.0848 78.9996 40.1541C79.0549 40.2235 79.1 40.3002 79.1 40.3246C79.1 40.4693 79.2653 40.2498 80.0602 39.0497C80.3501 38.6119 80.4152 38.5142 80.8389 37.8798C81.0334 37.5886 81.3366 37.1341 81.5126 36.8697C81.6887 36.6053 81.9378 36.2333 82.0662 36.0429C82.3231 35.6621 82.6553 35.1659 82.9948 34.6561C83.1163 34.4737 83.3421 34.1363 83.4967 33.9063C83.6513 33.6763 83.9404 33.2447 84.1391 32.9472C84.3379 32.6496 84.6145 32.2381 84.7537 32.0327C84.893 31.8272 85.1543 31.4342 85.3345 31.1592C85.5146 30.8843 85.6808 30.6389 85.7036 30.6139C85.7265 30.5889 85.8356 30.4278 85.946 30.2559C86.0564 30.084 86.2732 29.756 86.4278 29.527C86.5824 29.298 86.7721 29.0121 86.8494 28.8917C86.9267 28.7713 87.0229 28.6309 87.0632 28.5797L87.1363 28.4866H91.249H95.3617V23.785V19.0834L95.2714 18.9284C95.133 18.691 94.6806 17.9382 94.6374 17.8732C94.6163 17.8415 94.5383 17.7117 94.4641 17.5848C94.3302 17.3561 93.6062 16.1508 93.48 15.9468C93.4439 15.8884 93.2499 15.5668 93.0489 15.2322C92.4478 14.2316 92.2353 13.8791 91.929 13.3741C91.7686 13.1097 91.5969 12.8242 91.5474 12.7396C91.498 12.655 91.3353 12.3868 91.1859 12.1435C91.0364 11.9003 90.8789 11.6408 90.8358 11.5667C90.6248 11.2044 90.5324 11.0498 90.2616 10.6054C90.1004 10.341 89.9232 10.0468 89.8679 9.95165C89.8125 9.85647 89.7386 9.73246 89.7036 9.67604C89.6686 9.61967 89.4753 9.29954 89.274 8.96464C88.9265 8.38663 88.6502 7.92837 87.5508 6.10621C86.1708 3.81918 86.0716 3.65417 85.944 3.43363C85.8951 3.34903 85.7329 3.08081 85.5836 2.83759C85.4343 2.59437 85.2715 2.32615 85.2218 2.24155C85.0051 1.87285 84.3895 0.853769 84.3622 0.818738C84.3458 0.797588 84.321 0.749981 84.3073 0.712988C84.2835 0.649115 84.5592 0.645693 89.7368 0.645693H95.1914L95.244 0.77067C95.2729 0.839426 95.4032 1.11195 95.5335 1.37633C95.6638 1.6407 95.8158 1.96083 95.8714 2.08773C95.973 2.31996 96.0321 2.44601 96.3044 3.01064C96.4355 3.28243 96.5651 3.55873 96.8096 4.08736C96.8487 4.17196 96.9391 4.36231 97.0104 4.51036C97.1339 4.76677 97.222 4.95173 97.4684 5.47171C97.5285 5.59861 97.6302 5.81065 97.6944 5.9429C97.7585 6.07514 97.811 6.19035 97.811 6.19889C97.811 6.20746 97.8935 6.38477 97.9943 6.59297C98.2891 7.20143 98.3214 7.26899 98.4152 7.47134C98.4642 7.57709 98.5453 7.75014 98.5954 7.85588C98.6455 7.96163 98.7713 8.22985 98.8748 8.45193C98.9784 8.674 99.1175 8.96818 99.1839 9.10565C99.2889 9.32303 99.5251 9.82394 99.728 10.2593C99.7625 10.3333 99.8525 10.5214 99.928 10.6772C100.003 10.8331 100.083 11.006 100.105 11.0614L100.145 11.1621L100.222 11.0664C100.264 11.0138 100.299 10.9567 100.3 10.9395C100.3 10.9223 100.344 10.8185 100.397 10.7087C100.45 10.599 100.567 10.3568 100.658 10.1705C100.748 9.98418 100.822 9.82444 100.822 9.81552C100.822 9.8066 100.896 9.64913 100.986 9.46555C101.075 9.282 101.272 8.87066 101.422 8.55152C102.415 6.44138 102.618 6.01034 102.775 5.69052C102.872 5.49359 102.95 5.32616 102.95 5.31839C102.95 5.31063 103.011 5.17758 103.086 5.02268C103.16 4.86779 103.261 4.65456 103.31 4.54881C103.403 4.34823 103.433 4.28467 103.725 3.68182C103.823 3.47993 103.927 3.25063 103.957 3.1723C103.986 3.09397 104.025 3.02986 104.043 3.02986C104.06 3.02986 104.075 3.0076 104.075 2.98033C104.075 2.94065 104.698 1.59159 105.078 0.809124L105.158 0.645693H110.579C115.715 0.645693 116 0.649231 116 0.712988C116 0.749981 115.853 1.02255 115.674 1.31864C115.494 1.61474 115.212 2.08196 115.046 2.35691C114.881 2.63186 114.711 2.90873 114.67 2.97218C114.629 3.03563 114.583 3.1135 114.567 3.14523C114.551 3.17695 114.407 3.41663 114.245 3.67786C114.084 3.93911 113.952 4.16007 113.952 4.16892C113.952 4.17776 113.91 4.24956 113.858 4.32847C113.66 4.63076 113.029 5.69448 113.029 5.72651C113.029 5.74501 113.014 5.76012 112.997 5.76012C112.979 5.76012 112.938 5.81638 112.904 5.8851C112.87 5.95382 112.722 6.207 112.574 6.44769C112.427 6.68833 112.306 6.90033 112.306 6.91875C112.306 6.93713 112.292 6.95221 112.274 6.95221C112.257 6.95221 112.215 7.00847 112.181 7.07718C112.147 7.1459 111.988 7.41847 111.827 7.68284C111.502 8.21532 110.988 9.0642 110.337 10.1439C110.101 10.5352 109.714 11.1755 109.476 11.5667C109.239 11.958 108.846 12.6069 108.604 13.0088C108.197 13.6821 107.644 14.5927 107.547 14.7501C107.525 14.7864 107.317 15.1326 107.086 15.5193C106.854 15.906 106.636 16.2694 106.6 16.3268C106.565 16.3843 106.364 16.7167 106.153 17.0657C105.942 17.4147 105.612 17.9598 105.419 18.277C105.226 18.5943 105.043 18.8971 105.013 18.95C104.968 19.0296 104.959 19.8638 104.958 23.8199C104.958 28.1374 104.952 28.596 104.895 28.6171C104.86 28.63 102.728 28.6405 100.157 28.6405H95.4822V42.1956V55.7508H90.8847H86.2873V49.5698V43.3888L86.2046 43.5036C86.1591 43.5667 85.9344 43.8953 85.7053 44.2337C85.4762 44.5721 85.2694 44.8699 85.2459 44.8954C85.2224 44.921 85.2032 44.9505 85.2032 44.961C85.2032 44.9788 85.0366 45.2291 84.4205 46.1372C84.2843 46.3381 84.0883 46.6279 83.9853 46.7813C83.5296 47.4591 83.4052 47.6435 83.1229 48.0599C82.4889 48.9952 82.3247 49.2387 82.21 49.414C82.1447 49.5137 81.992 49.7387 81.8705 49.9139L81.6497 50.2326L79.1803 50.2414L76.711 50.2503L76.3898 49.7677C76.2131 49.5023 75.9736 49.1472 75.8577 48.9785C75.7418 48.8099 75.6469 48.6568 75.6469 48.6383C75.6469 48.6198 75.6328 48.5989 75.6155 48.5919C75.5982 48.5848 75.4772 48.4146 75.3466 48.2137C75.216 48.0128 75.0675 47.7949 75.0167 47.7294C74.9658 47.664 74.9242 47.5919 74.9242 47.5692C74.9242 47.5465 74.9099 47.5222 74.8925 47.5151C74.875 47.5081 74.7088 47.2687 74.5231 46.9832C74.3374 46.6977 74.1747 46.4554 74.1615 46.4448C74.1484 46.4343 74.0303 46.2612 73.8991 46.0603C73.768 45.8594 73.552 45.535 73.4191 45.3395C73.2863 45.1441 73.0601 44.8086 72.9166 44.5941C72.773 44.3796 72.5249 44.0118 72.3651 43.7767L72.0747 43.3493L72.074 49.55L72.0734 55.7508H67.4759H62.8784L62.8885 41.8784L62.8986 28.006L62.2963 27.7242C61.2501 27.2346 60.2417 26.6074 59.4656 25.9633C58.965 25.5479 58.028 24.6123 57.6601 24.1605C57.5912 24.0759 57.513 23.9804 57.4864 23.9483C57.0231 23.3901 56.4337 22.4894 56.0692 21.7828C55.9473 21.5466 55.8328 21.3268 55.8147 21.2944C55.7398 21.1603 55.3699 20.2482 55.238 19.8725C54.6139 18.0939 54.337 15.962 54.4408 13.7336C54.4988 12.4897 54.6653 11.4021 54.9849 10.1824C55.1759 9.45312 55.6347 8.29446 56.0278 7.54825C56.3276 6.97924 56.9499 5.9692 57.0584 5.87549C57.0706 5.86491 57.143 5.76977 57.2191 5.66406C57.928 4.68005 59.0267 3.58799 60.0678 2.8324C61.0103 2.14841 62.2431 1.4908 63.28 1.11884ZM24.1295 1.51092C24.0882 1.42351 23.8103 0.682802 23.8103 0.660191C23.8103 0.652038 26.1158 0.649806 28.9337 0.655152L34.0571 0.66492L34.1494 0.953328C34.2002 1.11195 34.2895 1.39748 34.348 1.58782C34.4064 1.77817 34.4878 2.03774 34.5288 2.16464C34.704 2.707 34.9324 3.4236 35.0496 3.79895C35.2833 4.54746 35.3804 4.85564 35.4375 5.02949C35.5639 5.41492 35.9465 6.62496 36.2035 7.45211C36.2594 7.63189 36.3283 7.84819 36.3566 7.93279C36.4535 8.22212 36.5333 8.47131 36.6582 8.87492C36.727 9.097 36.8173 9.38252 36.859 9.50942C36.9007 9.63632 36.9549 9.81802 36.9793 9.91319C37.0038 10.0084 37.0401 10.1208 37.0601 10.1631C37.0801 10.2054 37.1349 10.3698 37.1819 10.5285C37.2688 10.8218 37.2968 10.9112 37.4823 11.4898C37.54 11.6696 37.6298 11.9551 37.682 12.1243C37.7342 12.2935 37.8252 12.579 37.8841 12.7588C37.9431 12.9386 38.0152 13.1635 38.0445 13.2587C38.0737 13.3539 38.1454 13.5789 38.2039 13.7586C38.2624 13.9384 38.3437 14.198 38.3846 14.3354C38.4797 14.6547 38.872 15.8972 39.0284 16.3746C39.0944 16.5761 39.1485 16.7674 39.1485 16.7996C39.1485 16.8317 39.1642 16.8745 39.1833 16.8946C39.2024 16.9147 39.2509 17.0522 39.2911 17.2003C39.3313 17.3483 39.3856 17.5195 39.4117 17.5808C39.4577 17.6882 39.4636 17.6783 39.5874 17.2924C39.6578 17.0725 39.7498 16.7802 39.7919 16.6427C39.834 16.5052 39.9515 16.1332 40.053 15.8159C40.1545 15.4987 40.2829 15.092 40.3384 14.9123C40.3939 14.7325 40.4723 14.4816 40.5126 14.3547C40.5528 14.2278 40.6794 13.8211 40.7939 13.451C40.9083 13.0809 41.0176 12.7434 41.0367 12.7011C41.0558 12.6588 41.1061 12.5031 41.1485 12.355C41.2499 12.001 41.6248 10.7962 41.8604 10.067C41.9185 9.88724 41.9896 9.66228 42.0183 9.5671C42.047 9.47193 42.1196 9.23832 42.1796 9.04797C42.2395 8.85762 42.3311 8.56344 42.3831 8.39425C42.4352 8.22505 42.5216 7.94817 42.5753 7.77898C43.1685 5.90948 43.279 5.55531 43.4813 4.87567C43.5285 4.71705 43.5828 4.55266 43.6019 4.51036C43.621 4.46806 43.6851 4.26905 43.7444 4.06813C43.8036 3.86721 43.8765 3.6336 43.9062 3.549C43.9359 3.4644 44.0718 3.03179 44.2082 2.58764C44.3446 2.14349 44.4986 1.65031 44.5505 1.49169C44.6024 1.33306 44.6838 1.0778 44.7313 0.924487L44.8178 0.645693H49.9333C52.7468 0.645693 55.0488 0.656577 55.0488 0.669882C55.0488 0.6933 54.4149 2.37156 54.2445 2.79914C54.1982 2.91546 54.1273 3.10581 54.0869 3.22213C54.0465 3.33846 53.9944 3.47689 53.971 3.52977C53.9476 3.58264 53.8547 3.82491 53.7645 4.06813C53.6744 4.31135 53.5846 4.54496 53.5651 4.58726C53.5456 4.62956 53.5115 4.71609 53.4892 4.77954C53.467 4.84299 53.4086 4.99873 53.3595 5.12563C53.3103 5.25252 53.2213 5.48614 53.1617 5.64476C53.1021 5.80338 52.8945 6.34847 52.7004 6.85607C52.5063 7.36367 52.3126 7.87415 52.2699 7.99048C52.2272 8.1068 52.176 8.23658 52.156 8.27888C52.1361 8.32118 52.0198 8.62401 51.8975 8.95183C51.7753 9.27966 51.6587 9.58249 51.6383 9.62478C51.618 9.66708 51.5798 9.77091 51.5536 9.85551C51.5274 9.94011 51.4834 10.0612 51.4558 10.1247C51.3902 10.2757 51.249 10.6422 50.9741 11.3745C50.851 11.7023 50.7342 12.0051 50.7145 12.0474C50.6947 12.0897 50.6479 12.2108 50.6103 12.3166C50.5157 12.5831 50.4166 12.8465 50.2919 13.1626C50.2336 13.3106 50.1035 13.6481 50.003 13.9124C49.9024 14.1768 49.7666 14.5316 49.7012 14.7008C49.6357 14.87 49.5672 15.0517 49.5488 15.1045C49.5305 15.1574 49.4619 15.3391 49.3964 15.5083C49.3309 15.6775 49.1192 16.2312 48.9259 16.7388C48.5799 17.6473 48.4183 18.0673 48.3709 18.1809C48.3577 18.2126 48.3117 18.3337 48.2688 18.4501C48.0379 19.0761 47.6946 19.9789 47.6621 20.0459C47.6415 20.0882 47.4787 20.5122 47.3004 20.988C47.122 21.4639 46.9597 21.8879 46.9398 21.9302C46.9198 21.9725 46.882 22.0763 46.8558 22.1609C46.8295 22.2455 46.7849 22.3666 46.7566 22.4301C46.7282 22.4935 46.6866 22.5974 46.664 22.6608C46.6414 22.7243 46.5827 22.88 46.5336 23.0069C46.4844 23.1338 46.395 23.3674 46.3348 23.526C46.114 24.1077 45.8413 24.8221 45.7257 25.1219C45.6605 25.2911 45.5917 25.4728 45.5729 25.5257C45.554 25.5785 45.4908 25.7429 45.4323 25.891C45.3194 26.1768 45.0646 26.8474 44.804 27.5445C44.717 27.7772 44.6015 28.0743 44.5472 28.2048C44.493 28.3353 44.4486 28.4608 44.4486 28.4836L34.4852 28.5251L34.3665 28.2078C34.3012 28.0334 34.2323 27.856 34.2135 27.8137C34.1946 27.7714 34.1326 27.6157 34.0758 27.4676C33.7431 26.6007 33.5069 25.9804 33.4389 25.7948C33.3962 25.6785 33.3363 25.5228 33.3059 25.4487C33.2325 25.2706 32.8134 24.1789 32.7154 23.9106C32.6729 23.7943 32.622 23.6645 32.6022 23.6222C32.5825 23.5799 32.5318 23.4501 32.4896 23.3338C32.4059 23.1032 32.0959 22.2911 31.4989 20.7381C31.2875 20.1882 30.9261 19.2451 30.6958 18.6423C30.3224 17.6653 29.7161 16.0828 29.5759 15.7198C29.5473 15.6458 29.376 15.1959 29.1952 14.72C29.0144 14.2441 28.8474 13.8115 28.824 13.7586C28.8007 13.7058 28.7553 13.5846 28.7231 13.4894C28.691 13.3943 28.648 13.2818 28.6276 13.2395C28.6072 13.1972 28.4899 12.8944 28.3669 12.5665C28.2439 12.2387 28.1191 11.9186 28.0895 11.8551C28.06 11.7917 28.0143 11.6706 27.9881 11.586C27.9619 11.5014 27.9241 11.3975 27.9041 11.3552C27.8841 11.3129 27.7678 11.0101 27.6455 10.6823C27.5233 10.3545 27.4067 10.0516 27.3864 10.0093C27.366 9.96703 27.3144 9.83724 27.2716 9.72092C27.1696 9.44332 26.6955 8.19894 26.561 7.85588C26.4726 7.63035 26.0148 6.43592 25.6766 5.54862C25.6282 5.42172 25.5779 5.29194 25.5647 5.26022C25.5516 5.22849 25.4396 4.93431 25.3158 4.60649C25.1921 4.27867 25.066 3.94988 25.0354 3.87586C25.005 3.80183 24.9455 3.64609 24.9033 3.52977C24.8611 3.41344 24.7327 3.07601 24.6179 2.77991C24.5031 2.48381 24.3544 2.09446 24.2875 1.91469C24.2206 1.73491 24.1494 1.55322 24.1295 1.51092ZM74.6757 10.1562C73.7266 9.12346 72.6559 8.60863 71.0495 8.41267C70.7143 8.37179 69.7019 8.3734 69.3631 8.4154C68.4237 8.53176 67.6392 8.78086 66.9339 9.18679C66.736 9.30069 66.2889 9.65478 66.0305 9.90227C65.8137 10.11 65.3679 10.6501 65.3679 10.7052C65.3679 10.721 65.3425 10.7612 65.3114 10.7946C65.2395 10.8717 64.9115 11.4987 64.8254 11.7233C64.7896 11.817 64.7181 12.032 64.6666 12.2012C64.6151 12.3704 64.5625 12.5348 64.5496 12.5665C64.5368 12.5983 64.4807 12.9319 64.4251 13.308C64.287 14.242 64.287 15.0057 64.4251 15.9397C64.4807 16.3158 64.5368 16.6494 64.5496 16.6812C64.5625 16.7129 64.6151 16.8773 64.6666 17.0465C64.7997 17.484 64.8671 17.6497 65.0684 18.0341C66.0516 19.9123 67.793 20.8722 70.2179 20.8728C71.3293 20.8731 72.2649 20.684 73.0973 20.2908C74.0247 19.8527 74.8355 19.0725 75.3335 18.1387C75.5681 17.699 75.5939 17.6406 75.7396 17.2195C76.2562 15.7262 76.2562 13.5215 75.7396 12.0282C75.4897 11.3057 75.0967 10.6143 74.6757 10.1562ZM15.1374 36.8872C14.6061 36.5587 14.1579 36.3803 13.4711 36.2242C13.0341 36.1249 13.0097 36.1237 11.1723 36.1098L9.31509 36.0958L9.32525 42.1451L9.33541 48.1945L10.4396 48.2059C12.7933 48.2302 13.6961 48.1074 14.6894 47.6278C15.8762 47.0548 16.6915 45.9585 17.0512 44.4517C17.2375 43.6712 17.3181 42.5216 17.2612 41.4554C17.2108 40.5135 17.1145 39.9478 16.885 39.2474C16.7722 38.9029 16.3533 38.0533 16.234 37.9272C16.194 37.8849 16.1075 37.781 16.0418 37.6964C15.8452 37.4436 15.4158 37.0593 15.1374 36.8872ZM0.720051 61.6701C1.17654 61.2328 1.91037 60.8831 2.56433 60.7911C2.88623 60.7458 3.54633 60.7448 3.86667 60.7892C4.17672 60.8321 4.5966 60.9517 4.84839 61.0687L5.01904 61.148V61.8699V62.5918L4.72677 62.459C4.1389 62.1915 3.44551 62.1113 2.91192 62.2489C2.36573 62.3898 1.97758 62.669 1.79103 63.0551C1.71932 63.2036 1.70647 63.3031 1.70647 63.7108C1.70647 64.1519 1.71535 64.2097 1.81412 64.4115C2.1204 65.0373 2.90586 65.3629 3.83816 65.2505C4.21242 65.2054 4.63679 65.0903 4.8889 64.9654C4.95829 64.931 5.03442 64.9029 5.05806 64.9029C5.08754 64.9029 5.09765 65.1297 5.09019 65.6222L5.07927 66.3414L4.83835 66.4136C4.70585 66.4533 4.56616 66.5017 4.52793 66.521C4.24137 66.6661 2.88225 66.7389 2.34891 66.6377C1.26138 66.4314 0.350932 65.7182 0.0757683 64.8569C0.000603241 64.6216 -0.00517988 64.522 0.00879312 63.7033C0.0189913 63.1067 0.0187805 62.913 0.0718314 62.7336C0.102329 62.6306 0.150429 62.5322 0.228227 62.3649C0.325475 62.1558 0.562172 61.8214 0.720051 61.6701ZM22.0255 60.8616C22.0486 60.8443 22.1841 60.8143 22.3266 60.7948C23.1521 60.6819 23.9947 60.8302 24.5732 61.1902C25.1764 61.5657 25.4847 62.012 25.7002 62.8219C25.7701 63.0848 25.7831 63.2267 25.7706 63.591C25.7607 63.8817 25.7345 64.078 25.6957 64.1531L25.6362 64.2684L23.6191 64.2784C22.0452 64.2862 21.6021 64.2988 21.6028 64.3361C21.6047 64.4396 21.7578 64.6996 21.9067 64.8524C22.2965 65.2522 23.4214 65.5083 24.1586 65.3652C24.8627 65.2284 24.9989 65.1964 25.1471 65.1329C25.238 65.0939 25.3268 65.0705 25.3444 65.0808C25.3619 65.0912 25.3763 65.3828 25.3763 65.7289V66.358L25.1655 66.4208C25.0495 66.4554 24.9257 66.4985 24.8904 66.5168C24.8551 66.535 24.6292 66.5804 24.3885 66.6177C23.7753 66.7128 22.7855 66.7129 22.3046 66.6179C22.1059 66.5786 21.9252 66.5344 21.9031 66.5196C21.881 66.5049 21.7726 66.4611 21.6622 66.4222C21.1968 66.2587 20.5791 65.7883 20.2994 65.3844C19.8942 64.7992 19.744 63.956 19.8917 63.0956C20.0235 62.3274 20.3943 61.7465 21.0197 61.3283C21.2312 61.1869 21.7112 60.9547 21.8629 60.9204C21.9292 60.9053 22.0023 60.8789 22.0255 60.8616ZM29.0703 61.0542C29.118 61.0002 29.6768 60.8231 29.8954 60.7926C31.1209 60.6215 32.1271 61.0243 32.7396 61.9311C33.1127 62.4834 33.2517 62.9718 33.2517 63.7301C33.2517 64.4906 33.1137 64.9736 32.7354 65.5368C32.5465 65.8181 32.1348 66.2275 31.9995 66.2686C31.9564 66.2817 31.9211 66.3072 31.9211 66.3252C31.9211 66.3431 31.8352 66.3886 31.7304 66.4263C31.6255 66.464 31.5306 66.5065 31.5196 66.5207C31.5085 66.535 31.3642 66.5759 31.199 66.6117C30.1937 66.8295 29.2718 66.6433 28.6434 66.0956L28.5081 65.9778V67.5361V69.0944H27.6447H26.7812L26.7914 65.0087L26.8017 60.9229H27.5445H28.2873L28.2988 61.3012L28.3104 61.6795L28.5628 61.4358C28.7016 61.3017 28.8681 61.1662 28.9327 61.1345C28.9973 61.1027 29.0592 61.0666 29.0703 61.0542ZM43.8664 60.847C43.9106 60.8348 44.1093 60.8091 44.3081 60.7898C44.8503 60.7372 45.7006 60.7741 46.0782 60.8666C47.0139 61.0957 47.5993 61.6437 47.8047 62.4829C47.8603 62.7102 47.8794 63.0262 47.8982 64.0268C47.9169 65.0255 47.9109 65.3125 48.0421 65.3921C48.1053 65.4304 48.2002 65.4206 48.345 65.4191L48.6244 65.4162V65.9417C48.6244 66.4584 48.6228 66.4679 48.5286 66.509C48.3289 66.5961 47.9321 66.6432 47.5469 66.6254C47.0675 66.6033 46.7733 66.4853 46.5448 66.2236C46.4646 66.1317 46.3847 66.0565 46.3671 66.0565C46.3494 66.0565 46.2661 66.1042 46.1819 66.1623C46.0976 66.2204 45.9125 66.3177 45.7706 66.3784C45.6287 66.4392 45.4808 66.5044 45.4418 66.5233C45.3163 66.5844 44.8052 66.673 44.4515 66.6951C43.8077 66.7353 43.1832 66.5464 42.7625 66.1841C42.3851 65.8592 42.236 65.5192 42.2341 64.9798C42.233 64.6801 42.2511 64.568 42.3349 64.3553C42.4479 64.0687 42.4559 64.0572 42.7421 63.7714C43.059 63.455 43.3757 63.2921 43.8778 63.1873C44.2696 63.1055 45.3636 63.1023 45.8439 63.1815L46.1751 63.2362L46.1743 63.0602C46.1726 62.7285 45.9195 62.378 45.613 62.2831C45.5357 62.2591 45.4522 62.2242 45.4273 62.2054C45.354 62.15 44.6554 62.1261 44.3081 62.167C43.8903 62.2164 43.5343 62.2967 43.1111 62.4371C42.9228 62.4996 42.7583 62.5407 42.7455 62.5283C42.7326 62.516 42.722 62.1997 42.722 61.8254V61.1449L42.9017 61.0791C43.0005 61.043 43.2399 60.981 43.4337 60.9413C43.6275 60.9016 43.8222 60.8592 43.8664 60.847ZM51.2544 61.4413C51.6 61.1032 52.137 60.8497 52.6397 60.7873C53.6653 60.6601 54.5392 60.9269 55.1291 61.5473C55.4059 61.8384 55.4074 61.8404 55.5548 62.0957C55.8745 62.6495 55.9857 63.1227 55.9611 63.8262C55.939 64.4602 55.8641 64.7761 55.6311 65.2186C55.5313 65.408 55.4806 65.5058 55.4158 65.5942C55.3423 65.6947 55.2507 65.7832 55.0488 65.9803C54.8097 66.2138 54.6774 66.3068 54.4064 66.4318C54.2187 66.5183 53.9567 66.6112 53.8242 66.6382C53.5163 66.701 52.7256 66.7021 52.4389 66.6402C52.1504 66.5779 51.6179 66.3247 51.4155 66.1535C51.3274 66.079 51.2415 66.0181 51.2247 66.0181C51.2079 66.0181 51.1942 66.7106 51.1942 67.557V69.096L50.3409 69.0856L49.4877 69.0752L49.4775 65.0417C49.4699 62.0552 49.4792 60.9943 49.5132 60.955C49.5499 60.9127 49.707 60.9041 50.2864 60.9124L51.0135 60.9229L51.0336 61.2803L51.0536 61.6378L51.2544 61.4413ZM63.4524 62.2344C63.8436 61.5095 64.7394 60.9173 65.6339 60.7922C66.6482 60.6504 67.6384 60.9241 68.2582 61.5176C68.5424 61.7897 68.7073 62.0574 68.8867 62.538C68.9953 62.8291 69.0015 62.8795 69.0016 63.4801C69.0017 63.9266 68.9864 64.1402 68.9501 64.2011L68.8985 64.2876H66.8723C65.5047 64.2876 64.846 64.3006 64.846 64.3274C64.846 64.416 65.0479 64.7386 65.1856 64.8699C65.4945 65.1645 66.2562 65.4028 66.8887 65.4028C67.2941 65.4028 68.078 65.2692 68.3593 65.1521C68.4753 65.1038 68.5433 65.0714 68.5838 65.0911C68.6453 65.1208 68.644 65.2697 68.6514 65.663C68.6575 65.9859 68.6457 66.2801 68.6251 66.3168C68.512 66.5185 67.0747 66.7477 66.2461 66.6961C65.8302 66.6702 65.2514 66.5706 65.1893 66.5142C65.1683 66.4951 65.1231 66.4795 65.0889 66.4794C64.9877 66.4791 64.4065 66.1829 64.1829 66.0177C63.6997 65.6607 63.411 65.2516 63.2141 64.6452C63.1146 64.3387 63.1044 64.2526 63.1057 63.7301C63.1073 63.0562 63.1814 62.7365 63.4524 62.2344ZM5.53989 61.1184C5.49825 61.0356 5.47352 60.9534 5.48488 60.9357C5.49629 60.9181 5.89958 60.9037 6.38108 60.9037H7.2566L7.36526 61.144C7.42504 61.2762 7.49025 61.4189 7.51017 61.4613C7.65443 61.7677 8.07061 62.6821 8.07061 62.6926C8.07061 62.6998 8.12482 62.8178 8.19107 62.9549C8.25732 63.092 8.31153 63.2138 8.31153 63.2256C8.31153 63.2374 8.35453 63.3385 8.40705 63.4501C8.45961 63.5618 8.59745 63.8608 8.71337 64.1146C8.82929 64.3684 8.93088 64.5833 8.93907 64.5921C8.97107 64.6265 9.00997 64.5395 9.25892 63.8773C9.40066 63.5002 9.53256 63.1571 9.55207 63.1148C9.57158 63.0725 9.64265 62.8908 9.70999 62.711C9.77729 62.5312 9.88967 62.2371 9.9597 62.0573C10.0297 61.8775 10.1509 61.5574 10.2291 61.3459C10.3073 61.1344 10.3911 60.9486 10.4155 60.9331C10.4765 60.8941 12.1164 60.8961 12.1416 60.9352C12.158 60.9607 11.6259 62.3196 11.4839 62.6149C11.4636 62.6572 11.3013 63.0465 11.1232 63.4801C10.9452 63.9137 10.7836 64.303 10.7641 64.3453C10.7447 64.3876 10.7062 64.4828 10.6785 64.5568C10.6509 64.6309 10.6054 64.7433 10.5774 64.8068C10.53 64.9143 10.339 65.3774 9.77636 66.7487C9.56424 67.2657 9.22102 67.9731 9.16067 68.0177C9.14633 68.0283 9.06635 68.1341 8.98287 68.2529C8.61604 68.775 8.01849 69.1394 7.39778 69.2195C7.08042 69.2605 6.40381 69.2204 6.20983 69.1491C6.15129 69.1276 6.1433 69.0415 6.1433 68.4325C6.1433 67.7878 6.14812 67.7423 6.21357 67.7696C6.25219 67.7857 6.46621 67.8068 6.68909 67.8163C7.07118 67.8327 7.10764 67.8275 7.32603 67.7251C7.46664 67.6591 7.62733 67.5404 7.73494 67.423C7.91904 67.222 8.19107 66.7429 8.19107 66.6196C8.19107 66.5808 8.11145 66.3905 8.01416 66.197C7.91683 66.0034 7.77228 65.7109 7.69294 65.547C7.51904 65.1879 7.28796 64.7096 7.18666 64.4991C7.14594 64.4145 6.99389 64.1063 6.84878 63.8143C6.70371 63.5222 6.58498 63.2763 6.58498 63.2678C6.58498 63.2593 6.46753 63.0168 6.32399 62.7288C6.18044 62.4408 6.063 62.2001 6.063 62.1937C6.063 62.1829 5.70323 61.4433 5.53989 61.1184ZM12.9789 63.7685C12.9732 62.2457 12.9772 60.978 12.9877 60.9515C13.003 60.9132 13.6007 60.9052 15.869 60.913L18.731 60.9229L18.7413 63.7404L18.7516 66.558L17.8981 66.5476L17.0447 66.5372L17.0343 64.4318L17.0239 62.3265H15.8598H14.6957V64.4422V66.558L13.8425 66.5476L12.9893 66.5372L12.9789 63.7685ZM34.34 63.7517C34.3318 61.5487 34.3403 60.9598 34.3801 60.9355C34.4079 60.9187 34.7756 60.9046 35.1973 60.9042C36.0092 60.9036 36.0235 60.9066 36.1115 61.0959C36.1263 61.1277 36.1878 61.2263 36.2481 61.3151C36.3085 61.4039 36.4663 61.6423 36.5988 61.845C36.7313 62.0476 36.8849 62.2815 36.9401 62.3647C36.9953 62.448 37.2031 62.7674 37.4019 63.0746C37.6006 63.3817 37.7758 63.6332 37.7912 63.6334C37.8066 63.6337 37.8806 63.5431 37.9556 63.432C38.1921 63.0819 38.6831 62.3339 38.7755 62.183C38.8243 62.1033 38.885 62.0105 38.9103 61.9768C38.9356 61.9432 39.104 61.6923 39.2845 61.4193L39.6127 60.9229H40.4145H41.2163L41.2266 63.7397L41.2369 66.5564H40.4135H39.5902V64.9821C39.5902 64.1162 39.5747 63.3986 39.5558 63.3874C39.5368 63.3762 39.2542 63.7775 38.9276 64.2792C38.601 64.7809 38.3065 65.2216 38.2732 65.2586C38.2228 65.3145 38.1432 65.3259 37.8034 65.3259C37.4633 65.3259 37.3842 65.3146 37.3345 65.2586C37.3016 65.2216 37.1232 64.9577 36.9379 64.6722C36.7528 64.3867 36.5646 64.0998 36.5197 64.0347C36.4749 63.9696 36.3569 63.7926 36.2575 63.6415C36.1581 63.4904 36.0633 63.3663 36.0467 63.3657C36.0302 63.3652 36.0166 64.0832 36.0166 64.9614V66.558L35.1835 66.5476L34.3503 66.5372L34.34 63.7517ZM57.0661 63.7685C57.0604 62.2457 57.0645 60.9778 57.0752 60.951C57.0903 60.9132 57.2834 60.9044 57.9288 60.9125L58.7629 60.9229L58.783 61.9612L58.803 62.9994L59.1111 63.0106C59.3249 63.0183 59.4333 63.0066 59.4652 62.9722C59.4905 62.9449 59.636 62.7495 59.7885 62.538C59.9409 62.3265 60.1034 62.1015 60.1495 62.0381C60.1956 61.9746 60.3962 61.6931 60.5954 61.4125L60.9574 60.9023L61.8879 60.9126C62.5828 60.9203 62.8183 60.9347 62.8183 60.9694C62.8183 61.0176 62.8065 61.0353 62.5343 61.3975C62.3713 61.6145 62.0308 62.0834 61.6925 62.5572C61.5943 62.6947 61.3704 63.0053 61.195 63.2474C61.0196 63.4896 60.8873 63.7059 60.901 63.7281C60.9445 63.7985 61.0908 63.9985 61.1135 64.0185C61.1255 64.029 61.333 64.2973 61.5747 64.6145C61.8164 64.9318 62.046 65.2249 62.085 65.2659C62.1239 65.3069 62.1558 65.3532 62.1558 65.3689C62.1558 65.3845 62.1786 65.4202 62.2065 65.4482C62.3413 65.583 63.0296 66.5143 63.0091 66.534C62.9962 66.5463 62.5677 66.5564 62.0569 66.5564H61.1283L60.871 66.22C60.7294 66.0349 60.5507 65.797 60.4739 65.6912C60.397 65.5855 60.3103 65.4761 60.2813 65.4482C60.2522 65.4202 60.2284 65.3856 60.2284 65.3713C60.2284 65.3569 60.1877 65.299 60.1381 65.2426C60.0884 65.1862 59.9123 64.9577 59.7466 64.7348L59.4455 64.3297L59.1148 64.3279L58.7842 64.3261L58.7735 65.4317L58.7629 66.5372H57.9197H57.0765L57.0661 63.7685ZM69.4233 61.6141C69.4233 61.1177 69.4361 60.9436 69.4735 60.929C69.5011 60.9182 70.7253 60.9125 72.1938 60.9162L74.864 60.9229V61.6151V62.3073L73.9304 62.3176L72.9969 62.3279V64.443V66.558L72.1637 66.5476L71.3306 66.5372L71.3202 64.4318L71.3098 62.3265H70.4301C69.9462 62.3265 69.5218 62.316 69.4868 62.3031C69.4323 62.2831 69.4233 62.1857 69.4233 61.6141ZM24.011 62.6147C23.9134 62.4095 23.6206 62.1519 23.423 62.0973C23.0118 61.9838 22.442 62.0348 22.1429 62.2118C21.9152 62.3466 21.692 62.6127 21.6247 62.8297C21.584 62.9609 21.5428 63.0423 21.5683 63.0926C21.6161 63.1868 21.8973 63.1725 22.8518 63.1725H24.1419L24.1143 62.9731C24.0991 62.8635 24.0526 62.7022 24.011 62.6147ZM67.0274 62.2799C66.9643 62.2226 66.8323 62.1485 66.734 62.1153C66.5493 62.0529 66.0511 62.0085 65.91 62.0419C65.7113 62.0889 65.4362 62.1799 65.3941 62.2125C65.3687 62.2323 65.2888 62.2938 65.2166 62.3492C65.038 62.4863 64.8889 62.7417 64.8501 62.9771L64.8178 63.1725H66.0967H67.3756V62.9983C67.3756 62.7944 67.2039 62.4402 67.0274 62.2799ZM31.4589 63.2963C31.3407 62.8161 31.0708 62.4764 30.6606 62.2916C30.3339 62.1444 29.7813 62.1039 29.532 62.2088C29.0303 62.4201 28.8097 62.5783 28.6223 62.8613L28.5081 63.0337V63.7301V64.4264L28.6218 64.5974C28.7765 64.8299 29.0353 65.0452 29.3064 65.1668C29.6306 65.3122 30.2287 65.3319 30.5727 65.2085C31.2734 64.9572 31.6616 64.1196 31.4589 63.2963ZM53.3624 62.2841C53.2851 62.2596 53.2038 62.2268 53.1817 62.2113C53.1204 62.1681 52.6422 62.1413 52.4389 62.1696C52.037 62.2257 51.5764 62.5197 51.3103 62.8901L51.1942 63.0517V63.7198V64.3879L51.3089 64.5589C51.4688 64.7974 51.5948 64.9174 51.8431 65.0677C52.1419 65.2487 52.3625 65.2977 52.8061 65.2814C53.2449 65.2654 53.4648 65.1793 53.7398 64.9159C54.104 64.5671 54.3029 63.9585 54.2071 63.4861C54.1015 62.9656 53.9916 62.76 53.6651 62.4717C53.5759 62.393 53.4397 62.3086 53.3624 62.2841ZM46.1751 64.2207L45.9443 64.1774C45.6072 64.1141 45.0234 64.0937 44.7729 64.1365C44.3338 64.2113 44.0552 64.4243 43.988 64.7363C43.9285 65.0132 44.1289 65.3217 44.4486 65.4448C44.6383 65.5179 45.2127 65.5094 45.4956 65.4294C45.6188 65.3946 45.8221 65.3015 45.9474 65.2224L46.1751 65.0787V64.6497V64.2207ZM98.5158 72.3438C98.9256 71.5173 99.9032 70.909 101.023 70.7836C101.167 70.7675 101.474 70.7629 101.706 70.7734C102.268 70.7988 102.651 70.8846 103.124 71.0908L103.312 71.1729V71.8833C103.312 72.2741 103.301 72.5938 103.288 72.5938C103.275 72.5938 103.135 72.5355 102.977 72.4644C102.819 72.3932 102.59 72.3111 102.469 72.2818C102.179 72.2123 101.299 72.2111 101.083 72.28C100.592 72.437 100.258 72.6916 100.076 73.0466C99.9714 73.2499 99.9627 73.302 99.9612 73.7282C99.9596 74.1644 99.9661 74.2023 100.079 74.4204C100.298 74.8433 100.753 75.1568 101.284 75.2517C101.811 75.3456 102.773 75.2044 103.164 74.9757C103.234 74.9348 103.305 74.9013 103.322 74.9012C103.338 74.9011 103.352 75.2275 103.352 75.6265V76.352L103.055 76.4559C102.356 76.6999 101.265 76.7781 100.558 76.6348C99.9121 76.5035 99.2896 76.1759 98.8951 75.7593C98.5538 75.3989 98.4583 75.2391 98.3014 74.7665C98.2105 74.4924 98.199 74.3916 98.1964 73.8436C98.1931 73.1556 98.2532 72.8734 98.5158 72.3438ZM38.2784 71.7255C38.6554 71.3241 39.3438 70.9618 40.0118 70.8132C40.0559 70.8034 40.3205 70.7934 40.5996 70.7909C41.0202 70.7872 41.1727 70.8027 41.4899 70.8817C42.2902 71.0808 42.8433 71.4957 43.1574 72.1326C43.4161 72.6573 43.4618 72.864 43.4631 73.5167C43.4639 73.9316 43.4487 74.139 43.413 74.1993L43.3617 74.2858H41.3322H39.3027L39.3311 74.4097C39.3907 74.6695 39.6683 74.9738 39.9887 75.1303C40.675 75.4656 41.8293 75.4899 42.7417 75.1884C42.8998 75.1361 43.0414 75.0933 43.0563 75.0933C43.0712 75.0933 43.0834 75.3848 43.0834 75.741V76.3887L42.7321 76.4886C42.1371 76.6578 41.6187 76.7165 40.8951 76.6969C40.5418 76.6873 40.1467 76.6594 40.0172 76.635C39.6589 76.5674 39.1844 76.3785 38.859 76.1737C38.59 76.0045 38.0644 75.5414 38.0644 75.4737C38.0644 75.4579 38.0409 75.422 38.0121 75.3941C37.9834 75.3662 37.9207 75.2654 37.8729 75.1702C37.3128 74.0559 37.488 72.5671 38.2784 71.7255ZM91.7897 71.6709C92.2047 71.2775 92.6543 71.0334 93.234 70.8866C93.7847 70.7471 94.5852 70.7452 95.1353 70.8821C96.0127 71.1005 96.7186 71.6077 97.0818 72.2807C97.4231 72.9131 97.5224 73.8316 97.3298 74.5752C97.0543 75.6387 96.2182 76.3793 95.0024 76.6366C94.3424 76.7763 93.3261 76.7019 92.8086 76.4761C92.7135 76.4347 92.6244 76.4008 92.6105 76.4008C92.5508 76.4008 92.0314 76.0524 91.8346 75.8803C91.166 75.2959 90.8552 74.3725 90.9776 73.3344C91.063 72.6096 91.2901 72.1445 91.7897 71.6709ZM30.7165 76.5561V73.7482V70.9403H31.5798H32.4431V71.9983V73.0564L33.5974 73.0462L34.7518 73.036L34.7625 71.9881L34.7732 70.9403H35.6157H36.4583V73.7474V76.5546H35.6157H34.7732L34.7625 75.5067L34.7518 74.4588L33.5981 74.4486L32.4443 74.4384L32.4337 75.4869L32.423 76.5354L31.5697 76.5457L30.7165 76.5561ZM44.9333 75.026C45.3862 74.0792 45.5697 73.1898 45.6353 71.6228L45.6639 70.9403H48.0676H50.4714V73.1116V75.283L50.9031 75.2939L51.3347 75.3048L51.3453 76.6603L51.3558 78.0159H50.5523H49.7487V77.2852V76.5546H47.6608H45.5729V77.2852V78.0159H44.7698H43.9668V76.6507V75.2856H44.388H44.8092L44.9333 75.026ZM52.3787 76.5354L52.3684 73.7356L52.3581 70.9358L54.4362 70.9495L56.5144 70.9632L56.7844 71.0647C56.9329 71.1205 57.0775 71.184 57.1056 71.2057C57.3618 71.4035 57.4672 71.5031 57.5405 71.6166C57.9079 72.1859 57.8509 72.9824 57.4128 73.4023C57.3107 73.5002 57.1707 73.6027 57.1016 73.6301C57.0326 73.6574 56.9768 73.6907 56.9777 73.704C56.9785 73.7173 57.0677 73.7695 57.176 73.8199C57.4328 73.9396 57.6647 74.1563 57.7839 74.388C57.8685 74.5528 57.8795 74.6272 57.8795 75.0356C57.8795 75.4679 57.8722 75.5109 57.7639 75.7157C57.6318 75.9654 57.3824 76.2234 57.1769 76.3229C57.0996 76.3604 56.9279 76.4235 56.7954 76.4632C56.5727 76.5299 56.3965 76.5354 54.4666 76.5354H52.3787ZM59.044 76.5354L59.0336 73.7378L59.0234 70.9403H59.8864H60.7495L60.76 72.488L60.7705 74.0358L61.0516 73.6955C61.2062 73.5083 61.5585 73.0825 61.8345 72.7491C62.1106 72.4157 62.3907 72.0764 62.4569 71.9951C62.5232 71.9138 62.6948 71.7079 62.8384 71.5377C62.9819 71.3674 63.1503 71.163 63.2125 71.0834L63.3256 70.9386L64.0758 70.949L64.8259 70.9595V73.7474V76.5354L63.9727 76.5457L63.1194 76.5561L63.1182 75.0076L63.117 73.459L63.0078 73.5776C62.9477 73.6428 62.7179 73.9169 62.4971 74.1868C62.2762 74.4566 62.0773 74.6974 62.0549 74.7219C62.0326 74.7464 61.9165 74.8876 61.7968 75.0356C61.6772 75.1837 61.5471 75.3394 61.5078 75.3817C61.4684 75.424 61.3166 75.6057 61.1703 75.7855C61.024 75.9653 60.8743 76.1473 60.8374 76.19C60.8006 76.2328 60.7196 76.3326 60.6574 76.412L60.5442 76.5563L59.7941 76.5458L59.044 76.5354ZM66.6218 72.3438C66.5544 72.2625 65.7293 70.987 65.7293 70.9642C65.7293 70.9511 66.134 70.9403 66.6286 70.9403H67.5279L67.7079 71.219C67.807 71.3724 67.945 71.593 68.0145 71.7093C68.084 71.8257 68.3167 72.1977 68.5317 72.5361L68.9224 73.1514L69.1729 73.1628L69.4233 73.1743V72.0573V70.9403H70.286H71.1486L71.1593 72.0458L71.17 73.1514L71.4169 73.1627C71.6555 73.1737 71.667 73.1698 71.7582 73.0479C71.8101 72.9785 71.8718 72.8869 71.8953 72.8443C71.9189 72.8017 72.1961 72.3559 72.5113 71.8535L73.0845 70.9403H74.0083H74.9321L74.8467 71.0652C74.7385 71.2235 74.011 72.3204 73.8888 72.5094C73.8383 72.5876 73.6361 72.8937 73.4396 73.1898L73.0823 73.7282L73.15 73.8339C73.2148 73.935 73.7288 74.6529 73.9966 75.0164C74.0667 75.1116 74.2101 75.3106 74.3151 75.4586C74.4201 75.6067 74.6273 75.8952 74.7753 76.0999C74.9235 76.3045 75.0446 76.4906 75.0446 76.5133C75.0446 76.5415 74.7595 76.5546 74.1448 76.5546H73.245L72.9353 76.1027C72.7648 75.8542 72.576 75.5817 72.5156 75.4971C72.1542 74.9914 71.9378 74.6766 71.8876 74.5838C71.832 74.481 71.8207 74.4781 71.4901 74.4781H71.1499V75.5171V76.5561L70.2966 76.5457L69.4434 76.5354L69.4327 75.5067L69.422 74.4781H69.125H68.828L68.7141 74.6283C68.5655 74.8244 68.5314 74.8728 68.3324 75.1702C68.2405 75.3077 68.1502 75.4259 68.1317 75.433C68.1134 75.4401 68.0983 75.4605 68.0983 75.4785C68.0983 75.4965 67.9332 75.746 67.7314 76.0329L67.3645 76.5546H66.4666C65.8974 76.5546 65.5687 76.5406 65.5687 76.5163C65.5687 76.4952 65.8655 76.0669 66.2284 75.5645C66.5912 75.0621 67.0351 74.4471 67.2148 74.1977L67.5414 73.7443L67.2893 73.3517C66.9956 72.8945 66.6675 72.399 66.6218 72.3438ZM75.8075 76.5546V73.7474V70.9403H76.6507H77.4939V72.4528C77.4939 73.2847 77.5051 73.976 77.5188 73.9891C77.5461 74.0153 77.6303 73.922 78.1364 73.3046C78.3241 73.0755 78.496 72.8695 78.5184 72.8467C78.5408 72.8239 78.6221 72.7274 78.6991 72.6324C78.776 72.5373 78.8608 72.4334 78.8873 72.4016C79.0888 72.1604 79.6822 71.4371 79.8621 71.2136L80.082 70.9403H80.836H81.59L81.5797 73.7378L81.5694 76.5354H80.7262H79.883L79.8629 75.0069L79.8428 73.4784L79.5216 73.8688C79.345 74.0835 79.1823 74.2781 79.1603 74.3013C79.1382 74.3245 79.0665 74.4127 79.0011 74.4973C78.9356 74.5819 78.7549 74.799 78.5995 74.9799C78.4442 75.1607 78.2719 75.367 78.2167 75.4382C78.1615 75.5094 77.9306 75.7897 77.7037 76.0611L77.2911 76.5546H76.5493H75.8075ZM82.9948 76.5546V73.7474V70.9403H83.8121H84.6293L84.846 71.268C84.9652 71.4482 85.1113 71.6688 85.1707 71.7582C85.3675 72.0544 85.4626 72.2009 85.6173 72.4467C85.7015 72.5805 85.8229 72.7678 85.887 72.863C85.9511 72.9581 86.0409 73.0966 86.0865 73.1706C86.3001 73.5169 86.3907 73.6426 86.4265 73.6426C86.464 73.6425 87.0578 72.7783 87.1922 72.5283C87.2285 72.4605 87.2838 72.3848 87.3149 72.3601C87.3459 72.3354 87.3714 72.2998 87.3714 72.281C87.3714 72.2622 87.4559 72.1215 87.5592 71.9684C87.6625 71.8154 87.7918 71.6209 87.8465 71.5363C87.9013 71.4517 87.9766 71.3392 88.0139 71.2863C88.0512 71.2335 88.1121 71.1339 88.1492 71.0652L88.2167 70.9403H89.0388H89.8608V73.7482V76.5562L89.0478 76.5458L88.2347 76.5354L88.2146 74.9395L88.1945 73.3437L88.0518 73.5551C87.9732 73.6715 87.8411 73.8705 87.7582 73.9974C87.3305 74.6517 86.9676 75.1989 86.9101 75.276C86.8504 75.3561 86.8151 75.3625 86.4316 75.3625H86.0176L85.8641 75.1222C85.7796 74.99 85.6983 74.8732 85.6833 74.8626C85.6683 74.852 85.6239 74.7828 85.5846 74.7088C85.5454 74.6348 85.5016 74.5655 85.4873 74.555C85.4731 74.5444 85.2906 74.2718 85.0818 73.9493C84.873 73.6268 84.6884 73.3629 84.6716 73.3629C84.6548 73.3629 84.6411 74.081 84.6411 74.9587V76.5546H83.8179H82.9948ZM103.954 71.6581C103.954 71.2915 103.966 70.98 103.981 70.9659C103.996 70.9518 105.224 70.9403 106.711 70.9403H109.415V71.6324V72.3246H108.471H107.528V74.4404V76.5562L106.695 76.5457L105.862 76.5354L105.851 74.43L105.841 72.3246H104.898H103.954V71.6581ZM110.298 76.5546V73.7474V70.9403H111.161H112.024L112.035 72.4757L112.045 74.0111L112.426 73.55C112.636 73.2963 112.839 73.051 112.876 73.0047C112.914 72.9585 113.245 72.5573 113.613 72.1131C113.98 71.669 114.346 71.2241 114.427 71.1245L114.575 70.9433L115.287 70.9418L116 70.9403V73.7482V76.5562L115.187 76.5458L114.374 76.5354L114.354 75.0072L114.334 73.479L113.952 73.9438C113.742 74.1994 113.552 74.4285 113.53 74.4529C113.508 74.4773 113.426 74.5751 113.349 74.6702C113.272 74.7653 113.188 74.8691 113.161 74.9009C112.676 75.4775 111.883 76.4361 111.849 76.4873C111.81 76.5475 111.725 76.5546 111.052 76.5546H110.298ZM41.4462 72.2832C41.3569 72.21 41.2006 72.1288 41.0989 72.1028C40.8728 72.0449 40.3898 72.0472 40.1724 72.1074C39.6949 72.2394 39.3601 72.5937 39.2856 73.0456L39.2587 73.2091H40.5487H41.8387L41.8387 73.0456C41.8386 72.8191 41.6479 72.4485 41.4462 72.2832ZM55.7753 73.1495C56.1571 72.9604 56.1442 72.3326 55.7548 72.1556C55.6447 72.1056 55.4731 72.0939 54.852 72.0939H54.0851V72.6515V73.2091H54.8701C55.5003 73.2091 55.6788 73.1973 55.7753 73.1495ZM48.7449 75.2856V73.7474V72.2092H47.9877H47.2306L47.2035 72.6034C47.1886 72.8202 47.16 73.0927 47.14 73.2091C47.12 73.3254 47.0829 73.5503 47.0575 73.709C46.9984 74.0781 46.8389 74.6504 46.6957 75.0068L46.5837 75.2856H47.6643H48.7449ZM95.6689 73.5704C95.6102 72.9052 95.1748 72.395 94.5753 72.2888C93.7488 72.1425 93.1684 72.4069 92.8446 73.0772C92.7446 73.284 92.7344 73.3463 92.7344 73.7474C92.7344 74.145 92.7452 74.2119 92.841 74.4102C92.9842 74.7065 93.1248 74.8757 93.3424 75.0138C93.9009 75.368 94.7555 75.3074 95.2066 74.8815C95.559 74.5488 95.716 74.1036 95.6689 73.5704ZM56.1493 75.1147C56.2872 74.8363 56.1889 74.4877 55.9322 74.3448C55.8051 74.274 55.7098 74.2654 54.9373 74.2542L54.083 74.2418L54.0941 74.831L54.1052 75.4202H54.9083C55.6645 75.4202 55.7222 75.415 55.8983 75.332C56.0238 75.2728 56.1063 75.2013 56.1493 75.1147Z" fill="white"/>
<path fill-rule="evenodd" clip-rule="evenodd" d="M34.4733 28.5217H32.6738C30.9617 28.5217 30.8696 28.5253 30.7794 28.5952L30.6846 28.6687V42.1535C30.6846 55.4575 30.6856 55.639 30.7625 55.6928C30.8295 55.7397 32.8192 55.7474 44.8879 55.7474H58.9354L59.0339 55.653L59.1325 55.5586V42.1171C59.1325 28.7268 59.1322 28.6752 59.0522 28.5986C58.9725 28.5223 58.9183 28.5217 51.7043 28.5217C46.5294 28.5217 44.4367 28.5098 44.4367 28.4802L34.4733 28.5217ZM50.2789 42.1204C50.2789 38.0218 50.269 37.0529 50.2267 37.0124C50.1845 36.972 49.1746 36.961 44.9467 36.9551C42.0714 36.951 39.6811 36.9624 39.6349 36.9804C39.5887 36.9984 39.5297 37.0623 39.5038 37.1224C39.4684 37.2045 39.4593 38.4629 39.4673 42.186L39.4779 47.1404L39.5727 47.2139C39.665 47.2855 39.808 47.2874 44.8953 47.2874C49.3468 47.2874 50.1346 47.2793 50.201 47.2329C50.2774 47.1793 50.2789 47.0828 50.2789 42.1204Z" fill="white"/>
</svg>
