<svg width="209" height="73" viewBox="0 0 209 73" fill="none" xmlns="http://www.w3.org/2000/svg">
<path d="M81.2319 18.3579V18.2622H91.2129V18.3579C90.0349 18.8525 89.2787 19.6026 88.9445 20.6076C88.6102 21.5968 88.443 22.9132 88.443 24.5567V38.9165C88.443 42.682 89.2309 45.641 90.8069 47.7956C92.3828 49.9339 94.8821 51.0031 98.3045 51.0031C99.9282 51.0031 101.417 50.7544 102.77 50.2616C104.139 49.7503 105.317 48.9926 106.304 47.9862C107.306 46.9658 108.079 45.7224 108.62 44.2534C109.177 42.7857 109.456 41.0864 109.456 39.1559V25.2747C109.456 23.4078 109.137 21.9159 108.5 20.7991C107.864 19.6663 106.964 18.8525 105.802 18.3579V18.2622H114.494V18.3579C113.316 18.8525 112.408 19.6663 111.772 20.7991C111.151 21.9319 110.84 23.4239 110.84 25.2747V39.4431C110.84 41.6289 110.514 43.5747 109.861 45.2831C109.209 46.9751 108.301 48.3929 107.139 49.5434C105.977 50.6916 104.608 51.5702 103.032 52.1745C101.456 52.7649 99.7531 53.06 97.9226 53.06C93.4495 53.06 90.011 51.9049 87.6072 49.5899C85.2195 47.2773 84.0257 43.8629 84.0257 39.3474V24.5567C84.0257 22.9293 83.8504 21.6128 83.5003 20.6076C83.1661 19.6026 82.4099 18.8525 81.2319 18.3579ZM91.4754 11.896C91.4754 11.1142 91.7381 10.4362 92.2636 9.86161C92.8048 9.28729 93.4972 9 94.3408 9C95.1527 9 95.8372 9.28729 96.3945 9.86161C96.9515 10.4362 97.2299 11.1142 97.2299 11.896C97.2299 12.7098 96.9515 13.4038 96.3945 13.9781C95.8372 14.5527 95.1527 14.8397 94.3408 14.8397C93.4972 14.8397 92.8048 14.5527 92.2636 13.9781C91.7381 13.4038 91.4754 12.7098 91.4754 11.896ZM100.215 11.896C100.215 11.1142 100.501 10.4362 101.074 9.86161C101.647 9.28729 102.34 9 103.152 9C103.964 9 104.648 9.28729 105.205 9.86161C105.762 10.4362 106.041 11.1142 106.041 11.896C106.041 12.7098 105.762 13.4038 105.205 13.9781C104.648 14.5527 103.964 14.8397 103.152 14.8397C102.34 14.8397 101.647 14.5527 101.074 13.9781C100.501 13.4038 100.215 12.7098 100.215 11.896Z" fill="#FAF8F3"/>
<path d="M117.134 52.511V52.416C118.313 51.9225 119.222 51.1209 119.86 50.0066C120.498 48.8784 120.816 47.3841 120.816 45.5215V24.5776C120.816 22.9554 120.641 21.6433 120.29 20.6413C119.955 19.6396 119.198 18.8919 118.018 18.399V18.3035H125.766L138.057 46.0242L149.511 18.3035H156.757V18.399C155.577 18.8919 154.812 19.6396 154.461 20.6413C154.127 21.6273 153.959 22.9395 153.959 24.5776V46.1192C153.959 47.7409 154.214 49.0776 154.724 50.1271C155.235 51.1603 156.079 51.9225 157.259 52.416V52.511H146.427V52.416C147.606 51.9225 148.443 51.1603 148.938 50.1271C149.448 49.0776 149.703 47.7409 149.703 46.1192V21.1424L136.527 53.06H136.336L122.179 21.1424V45.5215C122.179 47.3841 122.498 48.8784 123.136 50.0066C123.774 51.1209 124.682 51.9225 125.862 52.416V52.511H117.134Z" fill="#FAF8F3"/>
<path d="M161.307 52.5334V52.4384C162.491 51.9446 163.251 51.2051 163.587 50.2198C163.939 49.2161 164.115 47.9039 164.115 46.2812V24.5817C164.115 22.9585 163.939 21.6455 163.587 20.6428C163.251 19.6404 162.491 18.8923 161.307 18.399V18.3035H171.338V18.399C170.154 18.8923 169.386 19.6404 169.035 20.6428C168.698 21.6295 168.53 22.9425 168.53 24.5817V46.2812C168.53 47.9039 168.698 49.2161 169.035 50.2198C169.386 51.2051 170.154 51.9446 171.338 52.4384V52.5334H161.307Z" fill="#FAF8F3"/>
<path d="M174.33 27.8876L175.982 17.9524C176.237 18.1115 176.58 18.2071 177.011 18.2389C177.442 18.2709 177.888 18.2867 178.351 18.2867H203.747C204.209 18.2867 204.649 18.2709 205.062 18.2389C205.495 18.2071 205.836 18.1115 206.092 17.9524L207.768 27.8876H207.647C206.866 26.5183 206.148 25.3162 205.495 24.2813C204.839 23.2304 204.13 22.3548 203.363 21.6541C202.598 20.9537 201.736 20.4281 200.778 20.0779C199.837 19.7117 198.68 19.5287 197.308 19.5287H193.239V46.6585C193.239 48.2843 193.454 49.5322 193.885 50.4089C194.316 51.2693 195.114 51.9443 196.279 52.4383V52.5334H185.795V52.4383C186.976 51.9443 187.774 51.2693 188.189 50.4089C188.619 49.5484 188.835 48.2983 188.835 46.6585V19.5287H184.766C183.394 19.5287 182.229 19.7117 181.271 20.0779C180.33 20.4281 179.476 20.9537 178.71 21.6541C177.944 22.3548 177.234 23.2304 176.58 24.2813C175.926 25.3162 175.208 26.5183 174.426 27.8876H174.33Z" fill="#FAF8F3"/>
<path d="M83.3438 57.2729V57.5481H81.8256V61.4858H81.5182V57.5481H80V57.2729H83.3438Z" fill="#FAF8F3"/>
<path d="M83.3438 57.2729V57.5481H81.8256V61.4858H81.5182V57.5481H80V57.2729H83.3438Z" fill="#FAF8F3"/>
<path d="M87.0396 57.2729L85.4291 59.9028H86.4385V60.1313H85.345V61.4858H85.0384V60.1313H83.9328V59.9028H84.9542L83.3438 57.2729H83.6805L85.2008 59.7536L86.7209 57.2729H87.0396Z" fill="#FAF8F3"/>
<path d="M87.0396 57.2729L85.4291 59.9028H86.4385V60.1313H85.345V61.4858H85.0384V60.1313H83.9328V59.9028H84.9542L83.3438 57.2729H83.6805L85.2008 59.7536L86.7209 57.2729H87.0396Z" fill="#FAF8F3"/>
<path d="M89.2353 57.2729C90.2814 57.2729 90.9113 57.8022 90.9113 58.6928C90.9113 59.5787 90.2814 60.108 89.2353 60.108H88.0465V61.4858H87.7435V57.2729H89.2353ZM89.2353 59.8305C90.1269 59.8305 90.6022 59.4155 90.6022 58.6928C90.6022 57.9654 90.1269 57.5481 89.2353 57.5481H88.0465V59.8305H89.2353Z" fill="#FAF8F3"/>
<path d="M89.2353 57.2729C90.2814 57.2729 90.9113 57.8022 90.9113 58.6928C90.9113 59.5787 90.2814 60.108 89.2353 60.108H88.0465V61.4858H87.7435V57.2729H89.2353ZM89.2353 59.8305C90.1269 59.8305 90.6022 59.4155 90.6022 58.6928C90.6022 57.9654 90.1269 57.5481 89.2353 57.5481H88.0465V59.8305H89.2353Z" fill="#FAF8F3"/>
<path d="M94.6071 57.5481H92.3704V59.3969H94.1739V59.644H92.3704V61.4858H92.0716V59.644H91.4393V59.3969H92.0716V57.2729H94.6071V57.5481Z" fill="#FAF8F3"/>
<path d="M94.6071 57.5481H92.3704V59.3969H94.1739V59.644H92.3704V61.4858H92.0716V59.644H91.4393V59.3969H92.0716V57.2729H94.6071V57.5481Z" fill="#FAF8F3"/>
<path d="M97.08 58.814C98.0155 58.814 98.5143 59.2593 98.5143 60.1266C98.5143 61.0172 97.9815 61.4858 97.0064 61.4858H95.487V57.2729H95.7761V58.814H97.08ZM99.2456 61.4858V57.2729H99.5348V61.4858H99.2456ZM97.012 61.2271C97.8056 61.2271 98.2195 60.854 98.2195 60.1313C98.2195 59.4155 97.8114 59.0728 97.012 59.0728H95.7761V61.2271H97.012Z" fill="#FAF8F3"/>
<path d="M97.08 58.814C98.0155 58.814 98.5143 59.2593 98.5143 60.1266C98.5143 61.0172 97.9815 61.4858 97.0064 61.4858H95.487V57.2729H95.7761V58.814H97.08ZM99.2456 61.4858V57.2729H99.5348V61.4858H99.2456ZM97.012 61.2271C97.8056 61.2271 98.2195 60.854 98.2195 60.1313C98.2195 59.4155 97.8114 59.0728 97.012 59.0728H95.7761V61.2271H97.012Z" fill="#FAF8F3"/>
<path d="M104.163 57.2729H104.462V61.4858H104.163V59.4808H101.418V61.4858H101.119V57.2729H101.418V59.2104H104.163V57.2729Z" fill="#FAF8F3"/>
<path d="M104.163 57.2729H104.462V61.4858H104.163V59.4808H101.418V61.4858H101.119V57.2729H101.418V59.2104H104.163V57.2729Z" fill="#FAF8F3"/>
<path d="M110.446 57.2729L108.751 60.0357V61.4858H108.445V60.0357L106.75 57.2729H107.087L108.607 59.7536L110.128 57.2729H110.446Z" fill="#FAF8F3"/>
<path d="M110.446 57.2729L108.751 60.0357V61.4858H108.445V60.0357L106.75 57.2729H107.087L108.607 59.7536L110.128 57.2729H110.446Z" fill="#FAF8F3"/>
<path d="M112.807 56.954C112.27 56.954 111.909 56.6813 111.897 56.2197H112.136C112.148 56.5554 112.416 56.7605 112.807 56.7605C113.192 56.7605 113.461 56.5554 113.473 56.2197H113.712C113.7 56.6813 113.338 56.954 112.807 56.954ZM111.15 61.4858V57.2734H111.448V60.9683L114.231 57.2734H114.494V61.4858H114.196V57.7956L111.413 61.4858H111.15Z" fill="#FAF8F3"/>
<path d="M112.807 56.954C112.27 56.954 111.909 56.6813 111.897 56.2197H112.136C112.148 56.5554 112.416 56.7605 112.807 56.7605C113.192 56.7605 113.461 56.5554 113.473 56.2197H113.712C113.7 56.6813 113.338 56.954 112.807 56.954ZM111.15 61.4858V57.2734H111.448V60.9683L114.231 57.2734H114.494V61.4858H114.196V57.7956L111.413 61.4858H111.15Z" fill="#FAF8F3"/>
<path d="M120.305 61.4858L118.756 59.4878H117.782V61.4858H117.486V57.2729H117.782V59.2104H118.762L120.218 57.2729H120.549L118.994 59.3246L120.653 61.4858H120.305Z" fill="#FAF8F3"/>
<path d="M120.305 61.4858L118.756 59.4878H117.782V61.4858H117.486V57.2729H117.782V59.2104H118.762L120.218 57.2729H120.549L118.994 59.3246L120.653 61.4858H120.305Z" fill="#FAF8F3"/>
<path d="M121.831 61.2084H124.349V61.4858H121.533V57.2729H124.262V57.5481H121.831V59.2104H124.005V59.4808H121.831V61.2084Z" fill="#FAF8F3"/>
<path d="M121.831 61.2084H124.349V61.4858H121.533V57.2729H124.262V57.5481H121.831V59.2104H124.005V59.4808H121.831V61.2084Z" fill="#FAF8F3"/>
<path d="M130.023 57.2729H130.333V61.4858H125.229V57.2729H125.539V61.2084H127.626V57.2729H127.936V61.2084H130.023V57.2729Z" fill="#FAF8F3"/>
<path d="M130.023 57.2729H130.333V61.4858H125.229V57.2729H125.539V61.2084H127.626V57.2729H127.936V61.2084H130.023V57.2729Z" fill="#FAF8F3"/>
<path d="M132.038 61.2084H134.557V61.4858H131.741V57.2729H134.469V57.5481H132.038V59.2104H134.213V59.4808H132.038V61.2084Z" fill="#FAF8F3"/>
<path d="M132.038 61.2084H134.557V61.4858H131.741V57.2729H134.469V57.5481H132.038V59.2104H134.213V59.4808H132.038V61.2084Z" fill="#FAF8F3"/>
<path d="M138.657 57.2729H138.956V61.4858H138.657V59.4808H135.912V61.4858H135.613V57.2729H135.912V59.2104H138.657V57.2729Z" fill="#FAF8F3"/>
<path d="M138.657 57.2729H138.956V61.4858H138.657V59.4808H135.912V61.4858H135.613V57.2729H135.912V59.2104H138.657V57.2729Z" fill="#FAF8F3"/>
<path d="M140.364 61.4858V57.2729H140.716V61.4858H140.364Z" fill="#FAF8F3"/>
<path d="M140.364 61.4858V57.2729H140.716V61.4858H140.364Z" fill="#FAF8F3"/>
<path d="M151.978 61.4858L150.64 59.4878H149.748V61.4858H149.459V59.4878H148.567L147.229 61.4858H146.876L148.324 59.3199L146.986 57.2729H147.322L148.561 59.2104H149.459V57.2729H149.748V59.2104H150.64L151.886 57.2729H152.216L150.884 59.3199L152.332 61.4858H151.978Z" fill="#FAF8F3"/>
<path d="M151.978 61.4858L150.64 59.4878H149.748V61.4858H149.459V59.4878H148.567L147.229 61.4858H146.876L148.324 59.3199L146.986 57.2729H147.322L148.561 59.2104H149.459V57.2729H149.748V59.2104H150.64L151.886 57.2729H152.216L150.884 59.3199L152.332 61.4858H151.978Z" fill="#FAF8F3"/>
<path d="M153.035 61.4858V57.2729H153.349V60.9683L156.279 57.2729H156.555V61.4858H156.242V57.7952L153.312 61.4858H153.035Z" fill="#FAF8F3"/>
<path d="M153.035 61.4858V57.2729H153.349V60.9683L156.279 57.2729H156.555V61.4858H156.242V57.7952L153.312 61.4858H153.035Z" fill="#FAF8F3"/>
<path d="M158.329 57.2729H160.955V61.4489H160.663V57.5456H158.592L158.541 59.0801C158.478 60.7625 158.22 61.4858 157.545 61.4858C157.454 61.4858 157.368 61.4789 157.259 61.4489L157.294 61.1692C157.368 61.1877 157.419 61.1923 157.482 61.1923C158.003 61.1923 158.215 60.5892 158.272 59.0871L158.329 57.2729Z" fill="#FAF8F3"/>
<path d="M158.329 57.2729H160.955V61.4489H160.663V57.5456H158.592L158.541 59.0801C158.478 60.7625 158.22 61.4858 157.545 61.4858C157.454 61.4858 157.368 61.4789 157.259 61.4489L157.294 61.1692C157.368 61.1877 157.419 61.1923 157.482 61.1923C158.003 61.1923 158.215 60.5892 158.272 59.0871L158.329 57.2729Z" fill="#FAF8F3"/>
<path d="M164.299 61.4858C163.086 61.4858 162.187 60.5849 162.187 59.3782C162.187 58.1739 163.086 57.2729 164.299 57.2729C165.505 57.2729 166.411 58.1693 166.411 59.3782C166.411 60.5895 165.505 61.4858 164.299 61.4858ZM164.299 61.2077C165.331 61.2077 166.109 60.4309 166.109 59.3782C166.109 58.3279 165.331 57.5511 164.299 57.5511C163.26 57.5511 162.483 58.3279 162.483 59.3782C162.483 60.4309 163.26 61.2077 164.299 61.2077Z" fill="#FAF8F3"/>
<path d="M164.299 61.4858C163.086 61.4858 162.187 60.5849 162.187 59.3782C162.187 58.1739 163.086 57.2729 164.299 57.2729C165.505 57.2729 166.411 58.1693 166.411 59.3782C166.411 60.5895 165.505 61.4858 164.299 61.4858ZM164.299 61.2077C165.331 61.2077 166.109 60.4309 166.109 59.3782C166.109 58.3279 165.331 57.5511 164.299 57.5511C163.26 57.5511 162.483 58.3279 162.483 59.3782C162.483 60.4309 163.26 61.2077 164.299 61.2077Z" fill="#FAF8F3"/>
<path d="M169.211 56.954C168.646 56.954 168.265 56.6813 168.253 56.2197H168.505C168.517 56.5554 168.8 56.7605 169.211 56.7605C169.616 56.7605 169.899 56.5554 169.911 56.2197H170.163C170.151 56.6813 169.77 56.954 169.211 56.954ZM167.467 61.4858V57.2734H167.78V60.9683L170.71 57.2734H170.986V61.4858H170.673V57.7956L167.743 61.4858H167.467Z" fill="#FAF8F3"/>
<path d="M169.211 56.954C168.646 56.954 168.265 56.6813 168.253 56.2197H168.505C168.517 56.5554 168.8 56.7605 169.211 56.7605C169.616 56.7605 169.899 56.5554 169.911 56.2197H170.163C170.151 56.6813 169.77 56.954 169.211 56.954ZM167.467 61.4858V57.2734H167.78V60.9683L170.71 57.2734H170.986V61.4858H170.673V57.7956L167.743 61.4858H167.467Z" fill="#FAF8F3"/>
<path d="M176.798 61.4858L175.249 59.4878H174.274V61.4858H173.978V57.2729H174.274V59.2104H175.255L176.711 57.2729H177.042L175.487 59.3246L177.146 61.4858H176.798Z" fill="#FAF8F3"/>
<path d="M176.798 61.4858L175.249 59.4878H174.274V61.4858H173.978V57.2729H174.274V59.2104H175.255L176.711 57.2729H177.042L175.487 59.3246L177.146 61.4858H176.798Z" fill="#FAF8F3"/>
<path d="M179.61 61.4858C178.397 61.4858 177.498 60.5849 177.498 59.3782C177.498 58.1739 178.397 57.2729 179.61 57.2729C180.817 57.2729 181.722 58.1693 181.722 59.3782C181.722 60.5895 180.817 61.4858 179.61 61.4858ZM179.61 61.2077C180.643 61.2077 181.42 60.4309 181.42 59.3782C181.42 58.3279 180.643 57.5511 179.61 57.5511C178.571 57.5511 177.794 58.3279 177.794 59.3782C177.794 60.4309 178.571 61.2077 179.61 61.2077Z" fill="#FAF8F3"/>
<path d="M179.61 61.4858C178.397 61.4858 177.498 60.5849 177.498 59.3782C177.498 58.1739 178.397 57.2729 179.61 57.2729C180.817 57.2729 181.722 58.1693 181.722 59.3782C181.722 60.5895 180.817 61.4858 179.61 61.4858ZM179.61 61.2077C180.643 61.2077 181.42 60.4309 181.42 59.3782C181.42 58.3279 180.643 57.5511 179.61 57.5511C178.571 57.5511 177.794 58.3279 177.794 59.3782C177.794 60.4309 178.571 61.2077 179.61 61.2077Z" fill="#FAF8F3"/>
<path d="M187.001 61.4858H186.717L186.712 57.8791L185.046 60.9263H184.903L183.238 57.8931V61.4858H182.954V57.2729H183.198L184.978 60.53L186.757 57.2729H186.996L187.001 61.4858Z" fill="#FAF8F3"/>
<path d="M187.001 61.4858H186.717L186.712 57.8791L185.046 60.9263H184.903L183.238 57.8931V61.4858H182.954V57.2729H183.198L184.978 60.53L186.757 57.2729H186.996L187.001 61.4858Z" fill="#FAF8F3"/>
<path d="M188.585 57.2729H191.929V61.4858H191.633V57.5481H188.881V61.4858H188.585V57.2729Z" fill="#FAF8F3"/>
<path d="M188.585 57.2729H191.929V61.4858H191.633V57.5481H188.881V61.4858H188.585V57.2729Z" fill="#FAF8F3"/>
<path d="M193.754 57.2729H196.505V61.4489H196.199V57.5456H194.029L193.976 59.0801C193.91 60.7625 193.64 61.4858 192.933 61.4858C192.837 61.4858 192.747 61.4789 192.633 61.4489L192.669 61.1692C192.747 61.1877 192.801 61.1923 192.867 61.1923C193.412 61.1923 193.634 60.5892 193.694 59.0871L193.754 57.2729Z" fill="#FAF8F3"/>
<path d="M193.754 57.2729H196.505V61.4489H196.199V57.5456H194.029L193.976 59.0801C193.91 60.7625 193.64 61.4858 192.933 61.4858C192.837 61.4858 192.747 61.4789 192.633 61.4489L192.669 61.1692C192.747 61.1877 192.801 61.1923 192.867 61.1923C193.412 61.1923 193.634 60.5892 193.694 59.0871L193.754 57.2729Z" fill="#FAF8F3"/>
<path d="M198.21 61.2084H200.729V61.4858H197.913V57.2729H200.641V57.5481H198.21V59.2104H200.385V59.4808H198.21V61.2084Z" fill="#FAF8F3"/>
<path d="M198.21 61.2084H200.729V61.4858H197.913V57.2729H200.641V57.5481H198.21V59.2104H200.385V59.4808H198.21V61.2084Z" fill="#FAF8F3"/>
<path d="M204.604 61.4858L203.056 59.4878H202.08V61.4858H201.784V57.2729H202.08V59.2104H203.061L204.517 57.2729H204.849L203.292 59.3246L204.952 61.4858H204.604Z" fill="#FAF8F3"/>
<path d="M204.604 61.4858L203.056 59.4878H202.08V61.4858H201.784V57.2729H202.08V59.2104H203.061L204.517 57.2729H204.849L203.292 59.3246L204.952 61.4858H204.604Z" fill="#FAF8F3"/>
<path d="M207.568 61.4858C206.372 61.4858 205.48 60.5895 205.48 59.3782C205.48 58.1693 206.372 57.2729 207.568 57.2729C208.138 57.2729 208.648 57.4614 209 57.8475L208.816 58.0429C208.471 57.6936 208.051 57.5511 207.579 57.5511C206.549 57.5511 205.773 58.3348 205.773 59.3782C205.773 60.424 206.549 61.2077 207.579 61.2077C208.051 61.2077 208.471 61.0583 208.816 60.709L209 60.9044C208.648 61.2905 208.138 61.4858 207.568 61.4858Z" fill="#FAF8F3"/>
<path d="M207.568 61.4858C206.372 61.4858 205.48 60.5895 205.48 59.3782C205.48 58.1693 206.372 57.2729 207.568 57.2729C208.138 57.2729 208.648 57.4614 209 57.8475L208.816 58.0429C208.471 57.6936 208.051 57.5511 207.579 57.5511C206.549 57.5511 205.773 58.3348 205.773 59.3782C205.773 60.424 206.549 61.2077 207.579 61.2077C208.051 61.2077 208.471 61.0583 208.816 60.709L209 60.9044C208.648 61.2905 208.138 61.4858 207.568 61.4858Z" fill="#FAF8F3"/>
<path d="M143.708 62.5391V56.2197H144.06V62.5391H143.708Z" fill="#FAF8F3"/>
<path d="M143.708 62.5391V56.2197H144.06V62.5391H143.708Z" fill="#FAF8F3"/>
<path fill-rule="evenodd" clip-rule="evenodd" d="M66.9424 31.981L66.9411 32.2353C66.8898 37.7983 65.1547 43.0805 62.1289 47.4814C58.4303 53.0758 52.8585 57.2481 46.3306 59.0198L37.9481 62.1278L34.1889 72.3074L30.4296 62.1278L22.9781 59.3649C15.8373 57.8416 9.71937 53.4778 5.7545 47.4798C2.72941 43.0791 0.994978 37.7976 0.943618 32.2353L0.942383 31.981V0.307373C11.6263 0.307373 20.2874 8.98576 20.2876 19.6911V55.2622C21.8639 55.8535 23.5146 56.281 25.2202 56.5257L30.4296 54.5942L34.1889 44.4145L37.9481 54.5942L43.0149 56.4726C44.5963 56.2216 46.1289 55.813 47.5972 55.2622V19.6911C47.5972 8.98576 56.2583 0.307373 66.9424 0.307373V31.981ZM32.3686 56.5371L27.4492 58.3608L32.3686 60.1849L34.1889 65.114L36.0093 60.1849L40.9286 58.3608L36.0093 56.5371L34.1889 51.6079L32.3686 56.5371ZM12.2068 44.0428C12.2068 47.842 13.7391 51.6428 17.104 53.3939V19.6911C17.104 15.1365 15.2275 11.021 12.2068 8.07865V44.0428ZM55.6782 8.07848C52.6573 11.0208 50.7806 15.1363 50.7806 19.6911V53.3939C54.1457 51.6428 55.6782 47.8418 55.6782 44.0424V8.07848ZM4.12578 31.3551C4.12578 36.6566 5.68626 41.5682 8.35025 45.6323C8.56712 45.949 8.79156 46.2606 9.0232 46.5667V10.7556C9.0232 7.60439 7.37583 4.49818 4.29903 3.84697L4.12578 3.81137V31.3551ZM63.7588 3.81137C60.5678 4.45006 58.8616 7.67171 58.8616 10.9323V46.5665C59.0927 46.2613 59.3162 45.9506 59.5326 45.6348C62.1975 41.5703 63.7588 36.6578 63.7588 31.3551V3.81137Z" fill="#FAF8F3"/>
</svg>
