<svg width="29" height="31" viewBox="0 0 29 31" fill="none" xmlns="http://www.w3.org/2000/svg">
<path d="M28.2643 26.7801C28.0028 27.5997 27.4852 28.3131 26.7882 28.8144C26 29.4985 25.0833 30.0171 24.0924 30.3399C23.1014 30.6626 22.0562 30.7828 21.0185 30.6934L20.4993 30.6512C18.3537 30.3634 16.2851 29.6567 14.4104 28.571C13.9558 28.3098 13.513 28.0643 12.9869 27.7665C10.8067 26.2851 8.83944 24.5104 7.13992 22.4922C4.9175 20.0308 3.16402 17.1808 1.96653 14.0836C1.30606 12.3934 0.913593 10.6095 0.803416 8.79697C0.59781 6.9008 0.965981 4.98606 1.85995 3.30229C2.39221 2.54814 3.0238 1.86984 3.73748 1.28591C4.06669 0.979376 4.45394 0.742425 4.87616 0.589161C5.29838 0.435897 5.74694 0.369454 6.19516 0.393787C6.67863 0.485155 7.139 0.672531 7.54927 0.944925C7.95954 1.21732 8.31144 1.56925 8.58434 1.98007C9.20442 2.79249 9.94288 3.58521 10.6053 4.41572L11.4642 5.4146C11.9759 5.94417 12.2612 6.65465 12.2567 7.39288C12.2033 8.06852 11.9024 8.69915 11.4121 9.1649C11.1004 9.49411 10.7719 9.80689 10.428 10.102L10.0896 10.4042C9.89427 10.5589 9.73569 10.7553 9.62542 10.9791C9.5318 11.1972 9.4863 11.4338 9.49615 11.672C9.68146 12.3377 10.0064 12.9562 10.451 13.4847C11.1218 14.5709 11.7744 15.5222 12.5037 16.6439C13.777 18.3862 15.3312 19.9028 17.1022 21.1311C17.2688 21.2912 17.474 21.406 17.7 21.4639C17.9005 21.511 18.1075 21.497 18.299 21.4217C18.8883 21.1641 19.4239 20.7969 19.8773 20.3395C20.4519 19.7355 21.2422 19.3864 22.0731 19.3645C22.4684 19.3981 22.8528 19.5109 23.2038 19.6962C23.5548 19.8816 23.8652 20.1357 24.1167 20.4435C24.4312 20.7641 24.7264 21.1022 25.0021 21.4577L25.4072 21.9699L25.8307 22.4527C26.0876 22.7579 26.3339 23.0329 26.5751 23.3514C27.0246 23.808 27.4375 24.2954 27.8139 24.8135C28.1946 25.3925 28.3538 26.0913 28.2643 26.7801Z" fill="#394652"/>
</svg>
