<svg width="67" height="67" viewBox="0 0 67 67" fill="none" xmlns="http://www.w3.org/2000/svg">
<path d="M58.292 0.0107422L58.3037 0.0117188H58.3164C60.5737 0.125797 62.7153 1.07276 64.3213 2.67871C65.8268 4.18427 66.7531 6.16059 66.957 8.26172L66.9883 8.68359V8.69629L66.9893 8.70801L67 9.11133V57.8643C66.9974 60.2864 66.034 62.6086 64.3213 64.3213C62.6084 66.0342 60.2856 66.9976 57.8633 67H9.13672C6.7144 66.9976 4.39162 66.0342 2.67871 64.3213C1.07276 62.7153 0.125797 60.5737 0.0117188 58.3164V58.3037L0.0107422 58.292L0 57.8887V9.13672L0.0117188 8.68359C0.125865 6.42627 1.07291 4.28452 2.67871 2.67871C4.28466 1.07276 6.42626 0.125797 8.68359 0.0117188H8.69629L8.70801 0.0107422L9.11133 0H57.8887L58.292 0.0107422ZM8.83398 3.05371C7.32935 3.13054 5.9022 3.76186 4.83203 4.83203C3.69042 5.97364 3.04834 7.52192 3.0459 9.13672V57.8633L3.05371 58.166C3.13054 59.6707 3.76186 61.0978 4.83203 62.168C5.97364 63.3096 7.52192 63.9517 9.13672 63.9541H57.8633C59.4781 63.9517 61.0264 63.3096 62.168 62.168C63.3092 61.0267 63.9513 59.4795 63.9541 57.8652V9.13672L63.9463 8.83398C63.8695 7.32935 63.2381 5.9022 62.168 4.83203C61.0978 3.76186 59.6707 3.13054 58.166 3.05371L57.8633 3.0459H9.13672L8.83398 3.05371ZM15.1016 44.7236C15.4872 44.6835 15.8733 44.7934 16.1816 45.0283L16.2061 45.0449C21.2558 48.5858 27.3085 50.4098 33.4736 50.25H33.5254C39.6914 50.4087 45.7459 48.5844 50.7979 45.0449L50.8008 45.043L50.8232 45.0273C51.0913 44.8248 51.4175 44.7165 51.751 44.7188L51.8984 44.7266C52.2427 44.7626 52.5636 44.9151 52.8086 45.1562L52.9092 45.2646L52.998 45.3828C53.1919 45.6667 53.2845 46.0091 53.2588 46.3545C53.2302 46.7346 53.0603 47.0757 52.8066 47.3252L52.752 47.3789L52.6895 47.4238C47.2872 51.3117 40.7893 53.3713 34.1436 53.3086L33.5 53.2959L32.8564 53.3076C26.2102 53.3695 19.7116 51.3101 14.3096 47.4209L14.2461 47.376L14.1914 47.3213C13.9358 47.0692 13.7695 46.7283 13.7412 46.3525C13.7117 45.9575 13.8371 45.5654 14.0908 45.2617C14.345 44.9576 14.7082 44.7648 15.1016 44.7236ZM33.4834 52.7793L33.4844 52.7646L33.4697 52.2959L33.4834 52.7793ZM27.4092 13.7041C27.8151 13.7042 28.201 13.8667 28.4844 14.1494L28.4854 14.1504C28.7709 14.4359 28.9316 14.8236 28.9316 15.2275V39.5908C28.9316 39.9947 28.7709 40.3825 28.4854 40.668L28.4844 40.6689C28.2335 40.9192 27.9056 41.0713 27.5586 41.1055L27.4092 41.1133C27.0101 41.1133 26.6209 40.9569 26.332 40.668C26.0431 40.3791 25.8867 39.9899 25.8867 39.5908V15.2275C25.8867 14.8283 26.0435 14.4391 26.332 14.1504L26.4434 14.0488C26.7144 13.8268 27.0557 13.7041 27.4092 13.7041ZM39.5908 13.7041C39.9442 13.7041 40.2856 13.8268 40.5566 14.0488L40.668 14.1504C40.9565 14.4391 41.1133 14.8283 41.1133 15.2275V39.5908C41.1133 39.9899 40.9569 40.3791 40.668 40.668C40.3791 40.9569 39.9899 41.1133 39.5908 41.1133C39.1895 41.1132 38.8022 40.9548 38.5156 40.6689L38.5146 40.668C38.2291 40.3825 38.0684 39.9947 38.0684 39.5908V15.2275C38.0684 14.8236 38.2291 14.4359 38.5146 14.1504L38.5156 14.1494C38.799 13.8667 39.1849 13.7042 39.5908 13.7041ZM15.2285 19.7959C15.5791 19.7962 15.9195 19.9173 16.1914 20.1396L16.3037 20.2402C16.5892 20.5258 16.75 20.9144 16.75 21.3184V33.5C16.75 33.8554 16.6254 34.1952 16.4043 34.4648L16.3037 34.5762C16.0195 34.8604 15.6334 35.0221 15.2285 35.0225C14.8246 35.0225 14.4359 34.8617 14.1504 34.5762L14.1494 34.5752C13.8668 34.2919 13.7041 33.9063 13.7041 33.5V21.3184C13.7041 20.9144 13.8649 20.5267 14.1504 20.2412L14.2637 20.1387C14.537 19.9155 14.8794 19.7959 15.2285 19.7959ZM51.7725 19.7959C52.1216 19.7959 52.463 19.9155 52.7363 20.1387L52.8496 20.2412L52.9512 20.3525C53.1732 20.6236 53.2959 20.9649 53.2959 21.3184V33.5C53.2959 33.9063 53.1331 34.2919 52.8506 34.5752L52.8496 34.5762C52.5641 34.8617 52.1764 35.0225 51.7725 35.0225C51.4182 35.0222 51.0775 34.8981 50.8076 34.6768L50.6963 34.5762C50.4127 34.2924 50.25 33.9061 50.25 33.5V21.3184C50.25 20.9144 50.4108 20.5267 50.6963 20.2412C50.9833 19.9547 51.3719 19.7962 51.7725 19.7959Z" fill="#302A23"/>
</svg>
