<svg width="67" height="67" viewBox="0 0 67 67" fill="none" xmlns="http://www.w3.org/2000/svg">
<path d="M58.292 0.0107422L58.3037 0.0117188H58.3164C60.5737 0.125797 62.7153 1.07276 64.3213 2.67871C65.8268 4.18427 66.7531 6.16059 66.957 8.26172L66.9883 8.68359V8.69629L66.9893 8.70801L67 9.11133V57.8643C66.9974 60.2864 66.034 62.6086 64.3213 64.3213C62.6084 66.0342 60.2856 66.9976 57.8633 67H9.13672C6.7144 66.9976 4.39162 66.0342 2.67871 64.3213C1.07276 62.7153 0.125797 60.5737 0.0117188 58.3164V58.3037L0.0107422 58.292L0 57.8887V9.13672L0.0117188 8.68359C0.125865 6.42627 1.07291 4.28452 2.67871 2.67871C4.28466 1.07276 6.42626 0.125797 8.68359 0.0117188H8.69629L8.70801 0.0107422L9.11133 0H57.8887L58.292 0.0107422ZM8.83398 3.05371C7.32935 3.13054 5.9022 3.76186 4.83203 4.83203C3.69042 5.97364 3.04834 7.52192 3.0459 9.13672V57.8633L3.05371 58.166C3.13054 59.6707 3.76186 61.0978 4.83203 62.168C5.97364 63.3096 7.52192 63.9517 9.13672 63.9541H57.8633C59.4781 63.9517 61.0264 63.3096 62.168 62.168C63.3092 61.0267 63.9513 59.4795 63.9541 57.8652V9.13672L63.9463 8.83398C63.8695 7.32935 63.2381 5.9022 62.168 4.83203C61.0978 3.76186 59.6707 3.13054 58.166 3.05371L57.8633 3.0459H9.13672L8.83398 3.05371Z" fill="#302A23"/>
<path d="M39.8789 12.2695L36.9844 16.834L37.1934 16.874C40.3364 17.4733 43.2827 18.8239 45.7715 20.8066C48.1046 22.6655 49.9693 25.0272 51.2256 27.7051L51.4688 28.2451L51.5049 28.3291L51.5928 28.3311C53.5726 28.3683 55.4586 29.1706 56.8428 30.5615L57.0947 30.8281C58.3199 32.1865 59 33.9429 59 35.7656C58.9999 37.7097 58.2264 39.578 56.8428 40.9688C55.4586 42.3596 53.5736 43.162 51.5938 43.1992L51.5049 43.2002L51.4688 43.2852C49.9708 46.758 47.4693 49.7212 44.2744 51.8047C41.0794 53.8882 37.3324 55 33.5 55C29.6676 55 25.9206 53.8882 22.7256 51.8047C19.5307 49.7212 17.0292 46.758 15.5312 43.2852L15.4941 43.2002L15.4072 43.1992H15.3936L15.3809 43.1982L15.0576 43.1836H15.0469L15.0361 43.1826C13.1931 43.0588 11.455 42.2729 10.1572 40.9688C8.85998 39.6649 8.09884 37.9412 8.00879 36.1289L8 35.7656C8 33.8213 8.77346 31.9523 10.1572 30.5615L10.4229 30.3076C11.7777 29.0734 13.5502 28.366 15.4062 28.3311L15.4941 28.3291L15.5312 28.2451C17.0229 24.7866 19.5107 21.8332 22.6875 19.751C25.8641 17.669 29.5904 16.55 33.4062 16.5322L33.4805 16.5312L33.5234 16.4648L37.2217 10.6299L39.8789 12.2695ZM33.5 19.6074C30.2873 19.6074 27.1447 20.5397 24.4639 22.2881C21.9505 23.9273 19.9469 26.217 18.6689 28.9023L18.668 28.9014L18.415 29.4619L18.4141 29.4609L17.5918 31.3682L15.4668 31.4082C14.315 31.4296 13.2144 31.8962 12.4043 32.71C11.5941 33.524 11.1387 34.6213 11.1387 35.7656C11.1388 36.91 11.5942 38.0064 12.4043 38.8203C13.2141 39.6338 14.3134 40.1007 15.4658 40.1221L17.5918 40.1602L17.8477 40.752L18.4229 42.0869L18.668 42.6289C19.9459 45.3142 21.9505 47.6039 24.4639 49.2432C27.1447 50.9915 30.2873 51.9228 33.5 51.9229L34.1016 51.9121C37.1037 51.8033 40.0229 50.8822 42.5361 49.2432C45.217 47.4947 47.3183 45.0061 48.5771 42.0869L49.1514 40.7529L49.3398 40.3135L49.1865 40.1602L51.5342 40.1201C52.6657 40.1009 53.7446 39.6505 54.5479 38.8633L54.5938 38.8184C55.1984 38.2109 55.6106 37.4433 55.7773 36.6084C55.9444 35.7719 55.8583 34.9051 55.5312 34.1152C55.2043 33.3259 54.6516 32.6492 53.9414 32.1689C53.2305 31.6883 52.3925 31.4242 51.5332 31.4082L49.4072 31.3682L49.1514 30.7764L48.5771 29.4443L48.332 28.9014C47.0541 26.2163 45.0495 23.9273 42.5361 22.2881C40.0228 20.649 37.1038 19.7279 34.1016 19.6191L33.5 19.6074ZM41.7998 40.4414C41.6969 41.0757 41.5199 41.7011 41.2676 42.3018C40.8459 43.3052 40.2283 44.2181 39.4482 44.9873C38.6681 45.7565 37.741 46.3674 36.7207 46.7842C35.7002 47.2009 34.6054 47.416 33.5 47.416C31.2674 47.416 29.1277 46.5411 27.5518 44.9873C26.7717 44.2181 26.1541 43.3052 25.7324 42.3018C25.4801 41.7011 25.3031 41.0757 25.2002 40.4414L25.0127 39.2822H41.9873L41.7998 40.4414ZM28.2324 35.6191H24.2383V31.6992H28.2324V35.6191ZM42.7617 35.6191H38.7676V31.6992H42.7617V35.6191Z" fill="#302A23"/>
</svg>
