<svg width="67" height="67" viewBox="0 0 67 67" fill="none" xmlns="http://www.w3.org/2000/svg">
<path d="M58.292 0.0107422L58.3037 0.0117188H58.3164C60.5737 0.125797 62.7153 1.07276 64.3213 2.67871C65.8268 4.18427 66.7531 6.16059 66.957 8.26172L66.9883 8.68359V8.69629L66.9893 8.70801L67 9.11133V57.8643C66.9974 60.2864 66.034 62.6086 64.3213 64.3213C62.6084 66.0342 60.2856 66.9976 57.8633 67H9.13672C6.7144 66.9976 4.39162 66.0342 2.67871 64.3213C1.07276 62.7153 0.125797 60.5737 0.0117188 58.3164V58.3037L0.0107422 58.292L0 57.8887V9.13672L0.0117188 8.68359C0.125865 6.42627 1.07291 4.28452 2.67871 2.67871C4.28466 1.07276 6.42626 0.125797 8.68359 0.0117188H8.69629L8.70801 0.0107422L9.11133 0H57.8887L58.292 0.0107422ZM8.83398 3.05371C7.32935 3.13054 5.9022 3.76186 4.83203 4.83203C3.69042 5.97364 3.04834 7.52192 3.0459 9.13672V57.8633L3.05371 58.166C3.13054 59.6707 3.76186 61.0978 4.83203 62.168C5.97364 63.3096 7.52192 63.9517 9.13672 63.9541H57.8633C59.4781 63.9517 61.0264 63.3096 62.168 62.168C63.3092 61.0267 63.9513 59.4795 63.9541 57.8652V9.13672L63.9463 8.83398C63.8695 7.32935 63.2381 5.9022 62.168 4.83203C61.0978 3.76186 59.6707 3.13054 58.166 3.05371L57.8633 3.0459H9.13672L8.83398 3.05371Z" fill="#302A23"/>
<path d="M26.4375 47.4504V18H21.625V47.4504H26.4375ZM18.4167 41.9284V23.5219H13.6042V30.8845H12V34.5658H13.6042V41.9284H18.4167ZM42.4792 18V47.4504H47.2917V18H42.4792ZM50.5 41.9284H55.3125V34.5658H56.9167V30.8845H55.3125V23.5219H50.5V41.9284ZM29.6458 34.5658H39.2708V30.8845H29.6458V34.5658Z" fill="#302A23"/>
</svg>
