<svg width="68" height="67" viewBox="0 0 68 67" fill="none" xmlns="http://www.w3.org/2000/svg">
<path d="M62.6959 0.513428H4.87377C3.72361 0.513428 2.62057 0.970324 1.80729 1.7836C0.994005 2.59689 0.537109 3.69993 0.537109 4.85008V62.6722C0.537109 63.8223 0.994005 64.9254 1.80729 65.7387C2.62057 66.5519 3.72361 67.0088 4.87377 67.0088H62.6959C63.846 67.0088 64.9491 66.5519 65.7623 65.7387C66.5756 64.9254 67.0325 63.8223 67.0325 62.6722V4.85008C67.0325 3.69993 66.5756 2.59689 65.7623 1.7836C64.9491 0.970324 63.846 0.513428 62.6959 0.513428ZM52.577 26.5334V64.1177H35.2304V26.5334H52.577ZM32.3393 64.1177H14.9926V26.5334H32.3393V64.1177ZM64.1414 62.6722C64.1414 63.0556 63.9891 63.4232 63.718 63.6943C63.4469 63.9654 63.0792 64.1177 62.6959 64.1177H55.4681V25.0878C55.4681 24.7044 55.3158 24.3368 55.0447 24.0657C54.7736 23.7946 54.4059 23.6423 54.0225 23.6423H13.5471C13.1637 23.6423 12.796 23.7946 12.5249 24.0657C12.2538 24.3368 12.1015 24.7044 12.1015 25.0878V64.1177H4.87377C4.49038 64.1177 4.1227 63.9654 3.85161 63.6943C3.58051 63.4232 3.42821 63.0556 3.42821 62.6722V4.85008C3.42821 4.4667 3.58051 4.09902 3.85161 3.82793C4.1227 3.55683 4.49038 3.40453 4.87377 3.40453H62.6959C63.0792 3.40453 63.4469 3.55683 63.718 3.82793C63.9891 4.09902 64.1414 4.4667 64.1414 4.85008V62.6722ZM41.0126 13.5234C41.0126 13.9068 40.8603 14.2745 40.5892 14.5456C40.3181 14.8167 39.9504 14.969 39.567 14.969H28.0026C27.6192 14.969 27.2515 14.8167 26.9804 14.5456C26.7093 14.2745 26.5571 13.9068 26.5571 13.5234C26.5571 13.14 26.7093 12.7723 26.9804 12.5012C27.2515 12.2301 27.6192 12.0778 28.0026 12.0778H39.567C39.9504 12.0778 40.3181 12.2301 40.5892 12.5012C40.8603 12.7723 41.0126 13.14 41.0126 13.5234Z" fill="#302A23"/>
</svg>
