<svg width="67" height="67" viewBox="0 0 67 67" fill="none" xmlns="http://www.w3.org/2000/svg">
<path d="M58.292 0.0107422L58.3037 0.0117188H58.3164C60.5737 0.125797 62.7153 1.07276 64.3213 2.67871C65.8268 4.18427 66.7531 6.16059 66.957 8.26172L66.9883 8.68359V8.69629L66.9893 8.70801L67 9.11133V57.8643C66.9974 60.2864 66.034 62.6086 64.3213 64.3213C62.6084 66.0342 60.2856 66.9976 57.8633 67H9.13672C6.7144 66.9976 4.39162 66.0342 2.67871 64.3213C1.07276 62.7153 0.125797 60.5737 0.0117188 58.3164V58.3037L0.0107422 58.292L0 57.8887V9.13672L0.0117188 8.68359C0.125865 6.42627 1.07291 4.28452 2.67871 2.67871C4.28466 1.07276 6.42626 0.125797 8.68359 0.0117188H8.69629L8.70801 0.0107422L9.11133 0H57.8887L58.292 0.0107422ZM8.83398 3.05371C7.32935 3.13054 5.9022 3.76186 4.83203 4.83203C3.69042 5.97364 3.04834 7.52192 3.0459 9.13672V57.8633L3.05371 58.166C3.13054 59.6707 3.76186 61.0978 4.83203 62.168C5.97364 63.3096 7.52192 63.9517 9.13672 63.9541H57.8633C59.4781 63.9517 61.0264 63.3096 62.168 62.168C63.3092 61.0267 63.9513 59.4795 63.9541 57.8652V9.13672L63.9463 8.83398C63.8695 7.32935 63.2381 5.9022 62.168 4.83203C61.0978 3.76186 59.6707 3.13054 58.166 3.05371L57.8633 3.0459H9.13672L8.83398 3.05371Z" fill="#302A23"/>
<path d="M22.2417 12.2434C25.3744 11.6842 28.6287 12.0951 31.4633 13.4093C34.2984 14.7239 36.5455 16.8637 37.8254 19.4747L38.4781 20.8073L39.889 20.0564C41.6081 19.1418 43.5731 18.6606 45.5744 18.662C48.5995 18.6621 51.5055 19.7296 53.6491 21.6348C55.7931 23.5405 57 26.1285 57 28.829V37.9747C57.0004 40.3218 56.0885 42.5953 54.4212 44.4106C52.7542 46.2256 50.4352 47.4702 47.8584 47.9379L46.7101 48.1466V53.9786C46.71 54.2534 46.5873 54.5143 46.3732 54.7048C46.1592 54.895 45.872 55 45.5758 55C45.2796 55 44.9924 54.895 44.7784 54.7048C44.5642 54.5143 44.4402 54.2535 44.4401 53.9786V48.1516L43.3002 47.9392C41.7923 47.6588 40.3629 47.1101 39.0986 46.3249C37.8344 45.5398 36.7612 44.5346 35.9443 43.3694L35.0837 42.1418L33.8119 43.052C31.9308 44.3995 29.6965 45.2994 27.3193 45.6679L26.1317 45.8519V53.9786C26.1316 54.2536 26.0077 54.5143 25.7933 54.7048C25.5795 54.8948 25.2934 54.9998 24.9974 55C24.7011 55 24.414 54.895 24.2 54.7048C23.9856 54.5143 23.8618 54.2536 23.8617 53.9786V45.847L22.6656 45.6666C19.4105 45.1774 16.4521 43.6796 14.3158 41.4353C12.3127 39.3309 11.1538 36.6978 11.014 33.9508L11 33.4V24.2741C11.0462 21.4248 12.1891 18.6769 14.2358 16.4883C16.2823 14.3 19.1086 12.8028 22.2417 12.2434ZM45.5758 20.7048C43.1432 20.7048 40.8129 21.5636 39.0972 23.0885C37.3821 24.6129 36.4216 26.6786 36.4216 28.829V37.9771C36.4269 39.6502 37.014 41.2824 38.1047 42.6494C39.1956 44.0163 40.737 45.0521 42.5197 45.6123L44.4401 46.2162V35.6873C44.4402 35.4124 44.5642 35.1517 44.7784 34.9611C44.9924 34.7709 45.2796 34.6659 45.5758 34.6659C45.872 34.666 46.1592 34.771 46.3732 34.9611C46.5873 35.1517 46.71 35.4125 46.7101 35.6873V46.2162L48.6319 45.6123C50.4145 45.052 51.9561 44.0163 53.0469 42.6494C54.1376 41.2824 54.7248 39.6502 54.73 37.9771V28.829C54.73 26.6786 53.7696 24.6129 52.0544 23.0885C50.3387 21.5636 48.0085 20.7048 45.5758 20.7048ZM27.2828 14.0157C25.0013 13.6132 22.6366 13.8214 20.4897 14.6147C18.343 15.4081 16.5113 16.7497 15.2269 18.4669C13.9434 20.1828 13.2633 22.1976 13.27 24.2556V33.4049C13.2784 35.7038 14.1442 37.9367 15.7336 39.7544C17.3233 41.5724 19.5482 42.8728 22.062 43.4497L23.8617 43.8634V35.6873C23.8618 35.4123 23.9856 35.1517 24.2 34.9611C24.414 34.7709 24.7011 34.6659 24.9974 34.6659C25.2934 34.6661 25.5795 34.7711 25.7933 34.9611C26.0078 35.1517 26.1316 35.4123 26.1317 35.6873V43.8881L27.9327 43.4732C30.2958 42.9289 32.4069 41.7436 33.9733 40.0854L34.3917 39.6432L34.2878 39.0751C34.2177 38.6946 34.1727 38.3105 34.1516 37.9253V28.8303C34.1551 26.7633 34.8659 24.7471 36.1885 23.0502L36.5297 22.613L36.4131 22.0918C35.9734 20.1231 34.894 18.3098 33.3051 16.8786L33.2981 16.8736L32.9865 16.6056C31.396 15.2915 29.422 14.3932 27.2828 14.0157Z" fill="#302A23"/>
</svg>
