<svg width="67" height="69" viewBox="0 0 67 69" fill="none" xmlns="http://www.w3.org/2000/svg">
<path d="M56.1232 50.8221L56.1242 50.826L56.2738 51.2205C56.6495 52.1307 57.213 52.9619 57.934 53.6608C58.7582 54.4594 59.7664 55.0643 60.8776 55.424L60.8834 55.426L66.4053 57.1581L60.9718 58.865L60.965 58.8689L60.9475 58.8747C59.8352 59.2342 58.8271 59.8385 58.002 60.6379C57.177 61.4374 56.5574 62.41 56.1902 63.4766L56.1893 63.4804L54.4474 68.6516L52.726 63.5057L52.723 63.4989L52.7211 63.4911L52.6443 63.2784C52.2721 62.2871 51.6797 61.3831 50.9054 60.6311C50.082 59.8316 49.0752 59.2258 47.9648 58.865L47.9288 58.8553L47.9036 58.8446L42.4925 57.1377L47.9482 55.426L47.9599 55.4221L48.367 55.2725C49.3043 54.8985 50.1542 54.3463 50.8646 53.6482C51.6762 52.8505 52.2846 51.8839 52.6453 50.826L52.6463 50.8212L54.3784 45.6471L56.1232 50.8221ZM41.3315 0.513428C41.7356 0.513466 42.1294 0.668684 42.4244 0.954477C42.7206 1.24148 42.8937 1.63828 42.8937 2.05807V16.432L41.8173 16.3436C41.4865 16.3165 41.154 16.3124 40.8225 16.3319L39.7694 16.3941V3.59688H34.1475V14.7737C34.1475 15.1935 33.9752 15.5904 33.6792 15.8773C33.3841 16.1632 32.9896 16.3183 32.5854 16.3183C32.1813 16.3183 31.7875 16.1631 31.4925 15.8773C31.1965 15.5904 31.0242 15.1935 31.0242 14.7737V3.60174H25.4013V10.5322C25.4013 10.952 25.2289 11.348 24.9331 11.6349C24.6379 11.9208 24.2438 12.0767 23.8402 12.0769C23.4358 12.0769 23.0412 11.9215 22.7463 11.6358C22.4501 11.3488 22.278 10.952 22.278 10.5322V3.60174H3.53637V30.1968H23.8751L22.5258 31.8269C22.2792 32.1247 22.0597 32.4434 21.869 32.7799L21.5834 33.2851H3.53637V38.0978C3.5365 39.3636 4.05501 40.5844 4.98873 41.4892C5.92376 42.3953 7.1986 42.9093 8.53363 42.9095H15.1115L15.2621 42.9173C15.6121 42.9509 15.9459 43.1011 16.2044 43.3515C16.4984 43.6369 16.6732 44.0316 16.6736 44.4522V59.2633C16.6736 60.5295 17.1922 61.7508 18.126 62.6557L18.3047 62.8208C19.22 63.6238 20.4189 64.0759 21.6709 64.076C23.0061 64.0759 24.2809 63.5615 25.2158 62.6557L25.3858 62.4827C26.2126 61.5981 26.6691 60.4502 26.6691 59.2633V44.4405C26.6693 44.046 26.821 43.6698 27.0888 43.3865C27.2216 43.246 27.3698 43.1446 27.5094 43.0727L27.8737 42.8852L30.3762 43.675L30.385 43.6779C30.7415 43.7941 31.0778 43.9518 31.3885 44.1433L34.3777 45.9852H29.7914V59.2633C29.7914 61.3687 28.9279 63.3819 27.4016 64.8609C25.8766 66.3385 23.8147 67.1642 21.6709 67.1643C19.5269 67.1642 17.4643 66.3387 15.9392 64.8609C14.413 63.3819 13.5493 61.3687 13.5493 59.2633V45.9852H8.53363C6.38984 45.985 4.32788 45.1594 2.80291 43.6818C1.27676 42.2028 0.413086 40.1896 0.413086 38.0842V2.05807C0.413086 1.63832 0.58518 1.24148 0.881336 0.954477C1.17645 0.668505 1.57099 0.513428 1.97521 0.513428H41.3315ZM41.2373 21.6974C41.4449 21.6974 41.6592 21.7496 41.8532 21.8616L41.9348 21.913C41.9914 21.952 42.0428 21.9939 42.0883 22.0374L42.2098 22.1715L42.2554 22.2307L42.2923 22.2968L42.3224 22.3502L42.3681 22.4318L42.3982 22.5202L43.9059 27.0201L43.9098 27.0298L43.9108 27.0317C44.4111 28.4941 45.2586 29.8257 46.3881 30.9186C47.4471 31.9433 48.7264 32.7315 50.136 33.2268L50.4197 33.322L50.4226 33.323L50.4294 33.3249L55.1061 34.7977H55.108L55.1643 34.8094L55.2469 34.8434C55.4365 34.9202 55.6292 35.0529 55.7764 35.2543C55.9299 35.4645 56.0093 35.7157 56.0095 35.9693C56.0095 36.2244 55.9294 36.4756 55.7773 36.6843L55.7764 36.6853C55.6265 36.8904 55.4211 37.037 55.1964 37.1166L55.1799 37.1224L55.1624 37.1283L50.5207 38.5884L50.5217 38.5894L50.5139 38.5923H50.511C48.9893 39.0788 47.609 39.9036 46.4794 40.9967C45.35 42.0896 44.5024 43.4212 44.0021 44.8835L44.0002 44.8855L42.4905 49.3873L42.4789 49.4203C42.391 49.6542 42.233 49.8551 42.0271 49.9964C41.8264 50.1339 41.5842 50.212 41.3315 50.2121C41.0804 50.2119 40.8378 50.1348 40.636 49.9964C40.534 49.9263 40.4409 49.8399 40.363 49.7399L40.3144 49.6768L40.2756 49.6068L40.2425 49.5466L40.1998 49.4689L38.6571 44.8864L38.6522 44.8709L38.5376 44.5532C37.9849 43.0987 37.0856 41.7866 35.9097 40.7266L35.6387 40.4905L35.2491 40.1787C34.323 39.4748 33.2756 38.9295 32.1531 38.568L32.1521 38.567L32.1424 38.5641L27.5026 37.103L27.489 37.0991L27.4764 37.0943C27.253 37.0171 27.0425 36.8725 26.8877 36.661L26.8867 36.66C26.7583 36.4841 26.6751 36.2715 26.6565 36.0431L26.6526 35.945L26.6565 35.8459C26.6752 35.6176 26.7582 35.4049 26.8867 35.229C27.0358 35.0251 27.244 34.8743 27.4783 34.7938L27.49 34.7899L27.5026 34.786L32.1424 33.3249L32.1628 33.3181L32.1667 33.3162C33.6658 32.8164 35.0232 31.9884 36.1322 30.8982C37.2431 29.8061 38.0747 28.4808 38.5648 27.0288L38.6095 26.8977L40.0793 22.5202L40.0861 22.4998L40.0939 22.4794C40.1816 22.2516 40.3364 22.0532 40.5398 21.913L40.5417 21.9121C40.7527 21.7673 40.9977 21.6976 41.2373 21.6974Z" fill="#302A23"/>
</svg>
