<svg width="63" height="60" viewBox="0 0 63 60" fill="none" xmlns="http://www.w3.org/2000/svg">
<path d="M31.4983 0C32.3279 4.61326e-05 33.1412 0.227259 33.8489 0.65625C34.5565 1.08533 35.1313 1.69958 35.51 2.43066L43.0178 16.9365L59.2112 19.5527L59.2131 19.5537C60.0322 19.6842 60.7983 20.0372 61.427 20.5732C62.0555 21.1092 62.522 21.8069 62.7756 22.5889L62.7776 22.5938C63.0348 23.3747 63.0694 24.2114 62.8782 25.0107C62.6869 25.81 62.2769 26.542 61.6926 27.125L61.6907 27.126L50.4924 38.3516L50.134 38.71L52.636 54.8359C52.7621 55.6481 52.6608 56.4802 52.343 57.2393C52.025 57.9985 51.5018 58.6572 50.8313 59.1416C50.1608 59.6258 49.3684 59.9171 48.5412 59.9834C47.7139 60.0497 46.8842 59.8882 46.1438 59.5166L31.4983 52.1709L16.8528 59.5166C16.1125 59.8889 15.2819 60.0513 14.4543 59.9854C13.6268 59.9194 12.834 59.628 12.1633 59.1436C11.4927 58.6591 10.9703 58.0006 10.6526 57.2412C10.3349 56.4818 10.2337 55.6502 10.3606 54.8379V54.8359L12.8625 38.71L12.5041 38.3516L1.30589 27.126C0.723195 26.5414 0.313489 25.8091 0.122292 25.0098C-0.0689503 24.2102 -0.0355154 23.3736 0.219949 22.5918C0.47542 21.8101 0.942876 21.1124 1.57151 20.5762C2.20028 20.0399 2.96647 19.6853 3.78538 19.5527L19.9787 16.9365L27.4846 2.43066L27.4856 2.43164C27.8643 1.70037 28.439 1.08541 29.1467 0.65625C29.8545 0.22708 30.6684 0 31.4983 0ZM31.4983 2.30762C31.0994 2.30762 30.7077 2.41706 30.3664 2.62402C30.0251 2.8311 29.7464 3.12833 29.5627 3.4834L21.5168 19.0264L4.16136 21.8311C3.76793 21.8951 3.39843 22.0662 3.09495 22.3252C2.79144 22.5843 2.56479 22.922 2.44065 23.3018C2.31652 23.6816 2.29998 24.0888 2.3928 24.4775C2.48563 24.866 2.68362 25.2211 2.96507 25.5039L2.96604 25.5049L15.3459 37.9131L12.6672 55.1816C12.6036 55.5779 12.6519 55.9841 12.8059 56.3545C12.9599 56.7248 13.2137 57.0447 13.5383 57.2793C13.8631 57.5139 14.2467 57.6546 14.6457 57.6855C15.0446 57.7165 15.4441 57.6363 15.801 57.4551L31.4973 49.582L47.1985 57.457C47.5543 57.6369 47.9525 57.7163 48.3498 57.6855C48.7489 57.6546 49.1325 57.5139 49.4573 57.2793C49.782 57.0447 50.0356 56.7248 50.1897 56.3545C50.3437 55.984 50.392 55.5779 50.3283 55.1816L47.6487 37.9131L60.0295 25.5049L60.0305 25.5039C60.3125 25.2206 60.511 24.8656 60.6037 24.4775C60.6966 24.0888 60.68 23.6816 60.5559 23.3018C60.4318 22.922 60.2051 22.5843 59.9016 22.3252C59.5981 22.0661 59.2287 21.8951 58.8352 21.8311L41.4778 19.0264L33.4328 3.4834C33.2492 3.12839 32.9714 2.8311 32.6301 2.62402C32.2889 2.41702 31.8971 2.30766 31.4983 2.30762Z" fill="#302A23"/>
</svg>
