<svg width="70" height="68" viewBox="0 0 70 68" fill="none" xmlns="http://www.w3.org/2000/svg">
<path d="M16.6986 1.50806H9.40352C7.46873 1.50806 5.61319 2.265 4.24509 3.61237C2.87699 4.95974 2.1084 6.78717 2.1084 8.69264V15.8772M53.1742 1.50806H60.4693C62.4041 1.50806 64.2597 2.265 65.6278 3.61237C66.9959 4.95974 67.7645 6.78717 67.7645 8.69264V15.8772M49.5267 19.4695V26.6541M20.3462 19.4695V26.6541M23.9937 48.2079C23.9937 48.2079 27.6413 51.8001 34.9364 51.8001C42.2315 51.8001 45.8791 48.2079 45.8791 48.2079M34.9364 19.4695V37.431H31.2889M16.6986 66.1693H9.40352C7.46873 66.1693 5.61319 65.4124 4.24509 64.065C2.87699 62.7176 2.1084 60.8902 2.1084 58.9847V51.8001M53.1742 66.1693H60.4693C62.4041 66.1693 64.2597 65.4124 65.6278 64.065C66.9959 62.7176 67.7645 60.8902 67.7645 58.9847V51.8001" stroke="#302A23" stroke-width="2.98437" stroke-linecap="round" stroke-linejoin="round"/>
</svg>
