<svg width="120" height="145" viewBox="0 0 120 145" fill="none" xmlns="http://www.w3.org/2000/svg">
<path d="M1.14551 103.352V103.263H10.4301V103.352C9.33432 103.813 8.63089 104.513 8.32005 105.45C8.009 106.373 7.85347 107.6 7.85347 109.133V122.525C7.85347 126.037 8.58646 128.797 10.0524 130.806C11.5184 132.8 13.8433 133.798 17.027 133.798C18.5374 133.798 19.9221 133.566 21.1807 133.106C22.4541 132.629 23.5499 131.923 24.468 130.984C25.4009 130.032 26.1192 128.873 26.6227 127.503C27.1408 126.134 27.4001 124.549 27.4001 122.749V109.803C27.4001 108.062 27.104 106.67 26.5116 105.629C25.9193 104.572 25.0825 103.813 24.0016 103.352V103.263H32.0869V103.352C30.9911 103.813 30.147 104.572 29.5546 105.629C28.9772 106.685 28.6883 108.077 28.6883 109.803V123.017C28.6883 125.055 28.3848 126.87 27.7776 128.463C27.1706 130.041 26.3265 131.363 25.2454 132.436C24.1645 133.507 22.8911 134.327 21.4249 134.89C19.959 135.441 18.3746 135.716 16.6717 135.716C12.5107 135.716 9.31211 134.639 7.07605 132.48C4.85487 130.323 3.74439 127.139 3.74439 122.927V109.133C3.74439 107.615 3.58131 106.388 3.25559 105.45C2.94475 104.513 2.24132 103.813 1.14551 103.352ZM10.6743 97.3254C10.6743 96.5962 10.9187 95.9639 11.4075 95.4281C11.911 94.8924 12.5551 94.6245 13.3399 94.6245C14.0951 94.6245 14.7318 94.8924 15.2502 95.4281C15.7683 95.9639 16.0274 96.5962 16.0274 97.3254C16.0274 98.0843 15.7683 98.7316 15.2502 99.2672C14.7318 99.8031 14.0951 100.071 13.3399 100.071C12.5551 100.071 11.911 99.8031 11.4075 99.2672C10.9187 98.7316 10.6743 98.0843 10.6743 97.3254ZM18.804 97.3254C18.804 96.5962 19.0707 95.9639 19.6037 95.4281C20.1367 94.8924 20.7808 94.6245 21.536 94.6245C22.2912 94.6245 22.928 94.8924 23.4464 95.4281C23.9645 95.9639 24.2238 96.5962 24.2238 97.3254C24.2238 98.0843 23.9645 98.7316 23.4464 99.2672C22.928 99.8031 22.2912 100.071 21.536 100.071C20.7808 100.071 20.1367 99.8031 19.6037 99.2672C19.0707 98.7316 18.804 98.0843 18.804 97.3254Z" fill="#ECE7DA"/>
<path d="M34.543 135.205V135.117C35.6404 134.656 36.4857 133.909 37.0789 132.87C37.6721 131.817 37.9687 130.424 37.9687 128.687V109.154C37.9687 107.641 37.8056 106.417 37.4794 105.483C37.1679 104.549 36.4634 103.851 35.366 103.392V103.303H42.5733L54.0068 129.156L64.6618 103.303H71.4018V103.392C70.3046 103.851 69.5926 104.549 69.2664 105.483C68.9551 106.402 68.7993 107.626 68.7993 109.154V129.244C68.7993 130.757 69.0365 132.003 69.5112 132.982C69.9858 133.946 70.7717 134.656 71.8691 135.117V135.205H61.7924V135.117C62.8898 134.656 63.6683 133.946 64.128 132.982C64.6026 132.003 64.8398 130.757 64.8398 129.244V105.95L52.5832 135.717H52.4052L39.2365 105.95V128.687C39.2365 130.424 39.5331 131.817 40.1264 132.87C40.7196 133.909 41.5649 134.656 42.6623 135.117V135.205H34.543Z" fill="#ECE7DA"/>
<path d="M75.6348 135.226V135.138C76.7361 134.677 77.4431 133.987 77.7555 133.068C78.0829 132.132 78.2468 130.909 78.2468 129.395V109.158C78.2468 107.644 78.0829 106.419 77.7555 105.484C77.4431 104.549 76.7361 103.852 75.6348 103.392V103.303H84.9663V103.392C83.8649 103.852 83.1506 104.549 82.8232 105.484C82.5106 106.404 82.3543 107.629 82.3543 109.158V129.395C82.3543 130.909 82.5106 132.132 82.8232 133.068C83.1506 133.987 83.8649 134.677 84.9663 135.138V135.226H75.6348Z" fill="#ECE7DA"/>
<path d="M87.749 112.24L89.2853 102.974C89.5227 103.123 89.8419 103.212 90.2428 103.242C90.6435 103.271 91.059 103.286 91.4896 103.286H115.113C115.544 103.286 115.952 103.271 116.337 103.242C116.739 103.212 117.057 103.123 117.295 102.974L118.854 112.24H118.742C118.015 110.963 117.347 109.842 116.739 108.877C116.13 107.897 115.47 107.08 114.757 106.427C114.045 105.773 113.243 105.283 112.352 104.957C111.476 104.615 110.4 104.444 109.124 104.444H105.339V129.746C105.339 131.263 105.539 132.426 105.94 133.244C106.341 134.047 107.083 134.676 108.166 135.137V135.225H98.414V135.137C99.5125 134.676 100.255 134.047 100.641 133.244C101.041 132.442 101.242 131.276 101.242 129.746V104.444H97.4566C96.1802 104.444 95.0967 104.615 94.206 104.957C93.3303 105.283 92.5361 105.773 91.8236 106.427C91.1112 107.08 90.4506 107.897 89.8419 108.877C89.2334 109.842 88.5655 110.963 87.8381 112.24H87.749Z" fill="#ECE7DA"/>
<path d="M3.11051 139.646V139.903H1.69823V143.575H1.41228V139.903H0V139.646H3.11051Z" fill="#ECE7DA"/>
<path d="M3.11051 139.646V139.903H1.69823V143.575H1.41228V139.903H0V139.646H3.11051Z" fill="#ECE7DA"/>
<path d="M6.54828 139.646L5.05021 142.099H5.98915V142.312H4.97191V143.575H4.68672V142.312H3.65823V142.099H4.60842L3.11035 139.646H3.42356L4.83781 141.96L6.25184 139.646H6.54828Z" fill="#ECE7DA"/>
<path d="M6.54828 139.646L5.05021 142.099H5.98915V142.312H4.97191V143.575H4.68672V142.312H3.65823V142.099H4.60842L3.11035 139.646H3.42356L4.83781 141.96L6.25184 139.646H6.54828Z" fill="#ECE7DA"/>
<path d="M8.5908 139.646C9.56397 139.646 10.1499 140.14 10.1499 140.97C10.1499 141.796 9.56397 142.29 8.5908 142.29H7.48498V143.575H7.20312V139.646H8.5908ZM8.5908 142.031C9.42021 142.031 9.8624 141.644 9.8624 140.97C9.8624 140.292 9.42021 139.903 8.5908 139.903H7.48498V142.031H8.5908Z" fill="#ECE7DA"/>
<path d="M8.5908 139.646C9.56397 139.646 10.1499 140.14 10.1499 140.97C10.1499 141.796 9.56397 142.29 8.5908 142.29H7.48498V143.575H7.20312V139.646H8.5908ZM8.5908 142.031C9.42021 142.031 9.8624 141.644 9.8624 140.97C9.8624 140.292 9.42021 139.903 8.5908 139.903H7.48498V142.031H8.5908Z" fill="#ECE7DA"/>
<path d="M13.5884 139.903H11.5077V141.627H13.1854V141.857H11.5077V143.575H11.2298V141.857H10.6416V141.627H11.2298V139.646H13.5884V139.903Z" fill="#ECE7DA"/>
<path d="M13.5884 139.903H11.5077V141.627H13.1854V141.857H11.5077V143.575H11.2298V141.857H10.6416V141.627H11.2298V139.646H13.5884V139.903Z" fill="#ECE7DA"/>
<path d="M15.888 141.083C16.7583 141.083 17.2223 141.499 17.2223 142.307C17.2223 143.138 16.7266 143.575 15.8196 143.575H14.4062V139.646H14.6751V141.083H15.888ZM17.9026 143.575V139.646H18.1716V143.575H17.9026ZM15.8248 143.334C16.5631 143.334 16.948 142.986 16.948 142.312C16.948 141.644 16.5685 141.325 15.8248 141.325H14.6751V143.334H15.8248Z" fill="#ECE7DA"/>
<path d="M15.888 141.083C16.7583 141.083 17.2223 141.499 17.2223 142.307C17.2223 143.138 16.7266 143.575 15.8196 143.575H14.4062V139.646H14.6751V141.083H15.888ZM17.9026 143.575V139.646H18.1716V143.575H17.9026ZM15.8248 143.334C16.5631 143.334 16.948 142.986 16.948 142.312C16.948 141.644 16.5685 141.325 15.8248 141.325H14.6751V143.334H15.8248Z" fill="#ECE7DA"/>
<path d="M22.4776 139.646H22.756V143.575H22.4776V141.705H19.9237V143.575H19.6455V139.646H19.9237V141.453H22.4776V139.646Z" fill="#ECE7DA"/>
<path d="M22.4776 139.646H22.756V143.575H22.4776V141.705H19.9237V143.575H19.6455V139.646H19.9237V141.453H22.4776V139.646Z" fill="#ECE7DA"/>
<path d="M28.3217 139.646L26.7453 142.223V143.575H26.4603V142.223L24.8838 139.646H25.1968L26.6111 141.96L28.0255 139.646H28.3217Z" fill="#ECE7DA"/>
<path d="M28.3217 139.646L26.7453 142.223V143.575H26.4603V142.223L24.8838 139.646H25.1968L26.6111 141.96L28.0255 139.646H28.3217Z" fill="#ECE7DA"/>
<path d="M30.5183 139.347C30.0188 139.347 29.6823 139.093 29.6714 138.663H29.894C29.9049 138.976 30.1546 139.167 30.5183 139.167C30.8764 139.167 31.1262 138.976 31.1371 138.663H31.3597C31.3488 139.093 31.0122 139.347 30.5183 139.347ZM28.9766 143.574V139.645H29.2535V143.091L31.8427 139.645H32.0871V143.574H31.8101V140.132L29.221 143.574H28.9766Z" fill="#ECE7DA"/>
<path d="M30.5183 139.347C30.0188 139.347 29.6823 139.093 29.6714 138.663H29.894C29.9049 138.976 30.1546 139.167 30.5183 139.167C30.8764 139.167 31.1262 138.976 31.1371 138.663H31.3597C31.3488 139.093 31.0122 139.347 30.5183 139.347ZM28.9766 143.574V139.645H29.2535V143.091L31.8427 139.645H32.0871V143.574H31.8101V140.132L29.221 143.574H28.9766Z" fill="#ECE7DA"/>
<path d="M37.493 143.575L36.0522 141.712H35.1455V143.575H34.8701V139.646H35.1455V141.453H36.0575L37.4121 139.646H37.7198L36.2735 141.559L37.8169 143.575H37.493Z" fill="#ECE7DA"/>
<path d="M37.493 143.575L36.0522 141.712H35.1455V143.575H34.8701V139.646H35.1455V141.453H36.0575L37.4121 139.646H37.7198L36.2735 141.559L37.8169 143.575H37.493Z" fill="#ECE7DA"/>
<path d="M38.9124 143.316H41.2551V143.575H38.6357V139.646H41.1738V139.903H38.9124V141.453H40.9352V141.705H38.9124V143.316Z" fill="#ECE7DA"/>
<path d="M38.9124 143.316H41.2551V143.575H38.6357V139.646H41.1738V139.903H38.9124V141.453H40.9352V141.705H38.9124V143.316Z" fill="#ECE7DA"/>
<path d="M46.5331 139.646H46.8209V143.575H42.0732V139.646H42.361V143.316H44.303V139.646H44.5911V143.316H46.5331V139.646Z" fill="#ECE7DA"/>
<path d="M46.5331 139.646H46.8209V143.575H42.0732V139.646H42.361V143.316H44.303V139.646H44.5911V143.316H46.5331V139.646Z" fill="#ECE7DA"/>
<path d="M48.4075 143.316H50.7502V143.575H48.1309V139.646H50.6689V139.903H48.4075V141.453H50.4303V141.705H48.4075V143.316Z" fill="#ECE7DA"/>
<path d="M48.4075 143.316H50.7502V143.575H48.1309V139.646H50.6689V139.903H48.4075V141.453H50.4303V141.705H48.4075V143.316Z" fill="#ECE7DA"/>
<path d="M54.5647 139.646H54.8429V143.575H54.5647V141.705H52.0108V143.575H51.7324V139.646H52.0108V141.453H54.5647V139.646Z" fill="#ECE7DA"/>
<path d="M54.5647 139.646H54.8429V143.575H54.5647V141.705H52.0108V143.575H51.7324V139.646H52.0108V141.453H54.5647V139.646Z" fill="#ECE7DA"/>
<path d="M56.1533 143.575V139.646H56.4807V143.575H56.1533Z" fill="#ECE7DA"/>
<path d="M56.1533 143.575V139.646H56.4807V143.575H56.1533Z" fill="#ECE7DA"/>
<path d="M66.9563 143.575L65.7119 141.712H64.8821V143.575H64.6128V141.712H63.7831L62.5384 143.575H62.21L63.5567 141.555L62.3122 139.646H62.6247L63.7776 141.453H64.6128V139.646H64.8821V141.453H65.7119L66.8702 139.646H67.1772L65.9381 141.555L67.285 143.575H66.9563Z" fill="#ECE7DA"/>
<path d="M66.9563 143.575L65.7119 141.712H64.8821V143.575H64.6128V141.712H63.7831L62.5384 143.575H62.21L63.5567 141.555L62.3122 139.646H62.6247L63.7776 141.453H64.6128V139.646H64.8821V141.453H65.7119L66.8702 139.646H67.1772L65.9381 141.555L67.285 143.575H66.9563Z" fill="#ECE7DA"/>
<path d="M67.9404 143.575V139.646H68.232V143.092L70.9574 139.646H71.2146V143.575H70.9231V140.133L68.1977 143.575H67.9404Z" fill="#ECE7DA"/>
<path d="M67.9404 143.575V139.646H68.232V143.092L70.9574 139.646H71.2146V143.575H70.9231V140.133L68.1977 143.575H67.9404Z" fill="#ECE7DA"/>
<path d="M72.8645 139.646H75.3071V143.541H75.0358V139.9H73.1091L73.0612 141.331C73.0029 142.9 72.7633 143.575 72.1354 143.575C72.0502 143.575 71.9704 143.569 71.8691 143.541L71.9011 143.28C71.9704 143.297 72.0182 143.301 72.0768 143.301C72.5611 143.301 72.758 142.739 72.8112 141.338L72.8645 139.646Z" fill="#ECE7DA"/>
<path d="M72.8645 139.646H75.3071V143.541H75.0358V139.9H73.1091L73.0612 141.331C73.0029 142.9 72.7633 143.575 72.1354 143.575C72.0502 143.575 71.9704 143.569 71.8691 143.541L71.9011 143.28C71.9704 143.297 72.0182 143.301 72.0768 143.301C72.5611 143.301 72.758 142.739 72.8112 141.338L72.8645 139.646Z" fill="#ECE7DA"/>
<path d="M78.4177 143.575C77.2896 143.575 76.4531 142.735 76.4531 141.609C76.4531 140.486 77.2896 139.646 78.4177 139.646C79.5402 139.646 80.3822 140.482 80.3822 141.609C80.3822 142.739 79.5402 143.575 78.4177 143.575ZM78.4177 143.316C79.3783 143.316 80.1015 142.591 80.1015 141.609C80.1015 140.63 79.3783 139.905 78.4177 139.905C77.4517 139.905 76.7285 140.63 76.7285 141.609C76.7285 142.591 77.4517 143.316 78.4177 143.316Z" fill="#ECE7DA"/>
<path d="M78.4177 143.575C77.2896 143.575 76.4531 142.735 76.4531 141.609C76.4531 140.486 77.2896 139.646 78.4177 139.646C79.5402 139.646 80.3822 140.482 80.3822 141.609C80.3822 142.739 79.5402 143.575 78.4177 143.575ZM78.4177 143.316C79.3783 143.316 80.1015 142.591 80.1015 141.609C80.1015 140.63 79.3783 139.905 78.4177 139.905C77.4517 139.905 76.7285 140.63 76.7285 141.609C76.7285 142.591 77.4517 143.316 78.4177 143.316Z" fill="#ECE7DA"/>
<path d="M82.9872 139.347C82.4614 139.347 82.1072 139.093 82.0957 138.663H82.3299C82.3414 138.976 82.6043 139.167 82.9872 139.167C83.3641 139.167 83.627 138.976 83.6385 138.663H83.8728C83.8613 139.093 83.5071 139.347 82.9872 139.347ZM81.3643 143.574V139.645H81.6558V143.091L84.3812 139.645H84.6385V143.574H84.347V140.132L81.6215 143.574H81.3643Z" fill="#ECE7DA"/>
<path d="M82.9872 139.347C82.4614 139.347 82.1072 139.093 82.0957 138.663H82.3299C82.3414 138.976 82.6043 139.167 82.9872 139.167C83.3641 139.167 83.627 138.976 83.6385 138.663H83.8728C83.8613 139.093 83.5071 139.347 82.9872 139.347ZM81.3643 143.574V139.645H81.6558V143.091L84.3812 139.645H84.6385V143.574H84.347V140.132L81.6215 143.574H81.3643Z" fill="#ECE7DA"/>
<path d="M90.0448 143.575L88.6039 141.712H87.6972V143.575H87.4219V139.646H87.6972V141.453H88.6093L89.9639 139.646H90.2716L88.8252 141.559L90.3687 143.575H90.0448Z" fill="#ECE7DA"/>
<path d="M90.0448 143.575L88.6039 141.712H87.6972V143.575H87.4219V139.646H87.6972V141.453H88.6093L89.9639 139.646H90.2716L88.8252 141.559L90.3687 143.575H90.0448Z" fill="#ECE7DA"/>
<path d="M92.6609 143.575C91.5328 143.575 90.6963 142.735 90.6963 141.609C90.6963 140.486 91.5328 139.646 92.6609 139.646C93.7835 139.646 94.6254 140.482 94.6254 141.609C94.6254 142.739 93.7835 143.575 92.6609 143.575ZM92.6609 143.316C93.6216 143.316 94.3449 142.591 94.3449 141.609C94.3449 140.63 93.6216 139.905 92.6609 139.905C91.6947 139.905 90.9714 140.63 90.9714 141.609C90.9714 142.591 91.6947 143.316 92.6609 143.316Z" fill="#ECE7DA"/>
<path d="M92.6609 143.575C91.5328 143.575 90.6963 142.735 90.6963 141.609C90.6963 140.486 91.5328 139.646 92.6609 139.646C93.7835 139.646 94.6254 140.482 94.6254 141.609C94.6254 142.739 93.7835 143.575 92.6609 143.575ZM92.6609 143.316C93.6216 143.316 94.3449 142.591 94.3449 141.609C94.3449 140.63 93.6216 139.905 92.6609 139.905C91.6947 139.905 90.9714 140.63 90.9714 141.609C90.9714 142.591 91.6947 143.316 92.6609 143.316Z" fill="#ECE7DA"/>
<path d="M99.5359 143.575H99.2715L99.2663 140.211L97.7166 143.053H97.5843L96.0349 140.224V143.575H95.7705V139.646H95.9978L97.6532 142.684L99.3084 139.646H99.5307L99.5359 143.575Z" fill="#ECE7DA"/>
<path d="M99.5359 143.575H99.2715L99.2663 140.211L97.7166 143.053H97.5843L96.0349 140.224V143.575H95.7705V139.646H95.9978L97.6532 142.684L99.3084 139.646H99.5307L99.5359 143.575Z" fill="#ECE7DA"/>
<path d="M101.01 139.646H104.12V143.575H103.845V139.903H101.285V143.575H101.01V139.646Z" fill="#ECE7DA"/>
<path d="M101.01 139.646H104.12V143.575H103.845V139.903H101.285V143.575H101.01V139.646Z" fill="#ECE7DA"/>
<path d="M105.818 139.646H108.377V143.541H108.093V139.9H106.074L106.024 141.331C105.963 142.9 105.712 143.575 105.054 143.575C104.965 143.575 104.881 143.569 104.775 143.541L104.809 143.28C104.881 143.297 104.931 143.301 104.993 143.301C105.5 143.301 105.706 142.739 105.762 141.338L105.818 139.646Z" fill="#ECE7DA"/>
<path d="M105.818 139.646H108.377V143.541H108.093V139.9H106.074L106.024 141.331C105.963 142.9 105.712 143.575 105.054 143.575C104.965 143.575 104.881 143.569 104.775 143.541L104.809 143.28C104.881 143.297 104.931 143.301 104.993 143.301C105.5 143.301 105.706 142.739 105.762 141.338L105.818 139.646Z" fill="#ECE7DA"/>
<path d="M109.963 143.316H112.306V143.575H109.687V139.646H112.225V139.903H109.963V141.453H111.986V141.705H109.963V143.316Z" fill="#ECE7DA"/>
<path d="M109.963 143.316H112.306V143.575H109.687V139.646H112.225V139.903H109.963V141.453H111.986V141.705H109.963V143.316Z" fill="#ECE7DA"/>
<path d="M115.911 143.575L114.471 141.712H113.563V143.575H113.288V139.646H113.563V141.453H114.475L115.83 139.646H116.139L114.691 141.559L116.235 143.575H115.911Z" fill="#ECE7DA"/>
<path d="M115.911 143.575L114.471 141.712H113.563V143.575H113.288V139.646H113.563V141.453H114.475L115.83 139.646H116.139L114.691 141.559L116.235 143.575H115.911Z" fill="#ECE7DA"/>
<path d="M118.668 143.575C117.555 143.575 116.726 142.739 116.726 141.609C116.726 140.482 117.555 139.646 118.668 139.646C119.198 139.646 119.673 139.822 120 140.182L119.829 140.364C119.508 140.038 119.117 139.905 118.678 139.905C117.72 139.905 116.998 140.636 116.998 141.609C116.998 142.585 117.72 143.316 118.678 143.316C119.117 143.316 119.508 143.176 119.829 142.851L120 143.033C119.673 143.393 119.198 143.575 118.668 143.575Z" fill="#ECE7DA"/>
<path d="M118.668 143.575C117.555 143.575 116.726 142.739 116.726 141.609C116.726 140.482 117.555 139.646 118.668 139.646C119.198 139.646 119.673 139.822 120 140.182L119.829 140.364C119.508 140.038 119.117 139.905 118.678 139.905C117.72 139.905 116.998 140.636 116.998 141.609C116.998 142.585 117.72 143.316 118.678 143.316C119.117 143.316 119.508 143.176 119.829 142.851L120 143.033C119.673 143.393 119.198 143.575 118.668 143.575Z" fill="#ECE7DA"/>
<path d="M59.2637 144.556V138.663H59.5911V144.556H59.2637Z" fill="#ECE7DA"/>
<path d="M59.2637 144.556V138.663H59.5911V144.556H59.2637Z" fill="#ECE7DA"/>
<path fill-rule="evenodd" clip-rule="evenodd" d="M100.518 38.8179L100.517 39.1296C100.454 45.9473 98.3233 52.421 94.6082 57.8146C90.0669 64.6708 83.2257 69.7842 75.2106 71.9556L64.9183 75.7646L60.3026 88.2403L55.6868 75.7646L46.5377 72.3785C37.7699 70.5117 30.2581 65.1635 25.3899 57.8126C21.6756 52.4193 19.546 45.9465 19.483 39.1296L19.4814 38.8179V6.10352e-05C32.5996 6.10352e-05 43.2339 10.6359 43.2341 23.7559V67.3504C45.1696 68.0751 47.1963 68.599 49.2905 68.8988L55.6868 66.5318L60.3026 54.0559L64.9183 66.5318L71.1395 68.8338C73.0812 68.5263 74.9628 68.0254 76.7657 67.3504V23.7559C76.7657 10.6359 87.4 6.10352e-05 100.518 6.10352e-05V38.8179ZM58.0676 68.9129L52.0274 71.148L58.0676 73.3835L60.3026 79.4243L62.5378 73.3835L68.5778 71.148L62.5378 68.9129L60.3026 62.8718L58.0676 68.9129ZM33.3122 53.6004C33.3122 58.2565 35.1937 62.9146 39.3252 65.0607V23.7559C39.3252 18.174 37.0211 13.1302 33.3122 9.52422V53.6004ZM86.6878 9.524C82.9787 13.13 80.6744 18.1738 80.6744 23.7559V65.0607C84.8061 62.9146 86.6878 58.2563 86.6878 53.5999V9.524ZM23.3901 38.0509C23.3901 44.5482 25.3061 50.5676 28.5771 55.5484C28.8433 55.9365 29.1189 56.3184 29.4033 56.6936V12.8049C29.4033 8.94298 27.3806 5.13613 23.6028 4.33804L23.3901 4.29441V38.0509ZM96.6095 4.29441C92.6915 5.07716 90.5965 9.02549 90.5965 13.0216V56.6934C90.8802 56.3193 91.1547 55.9385 91.4204 55.5514C94.6924 50.5702 96.6095 44.5497 96.6095 38.0509V4.29441Z" fill="#ECE7DA"/>
</svg>
