<svg width="28" height="40" viewBox="0 0 28 40" fill="none" xmlns="http://www.w3.org/2000/svg">
<path d="M13.7363 19.9921C14.6806 19.9921 15.4893 19.6117 16.1624 18.851C16.8355 18.0903 17.1715 17.1747 17.1703 16.1043C17.1692 15.0339 16.8332 14.1189 16.1624 13.3595C15.4916 12.6001 14.6829 12.2191 13.7363 12.2165C12.7896 12.2139 11.9815 12.5949 11.3118 13.3595C10.6422 14.1241 10.3056 15.039 10.3022 16.1043C10.2988 17.1695 10.6353 18.0851 11.3118 18.851C11.9883 19.6169 12.7965 19.9972 13.7363 19.9921ZM13.7363 39.4309C9.12889 34.9923 5.68796 30.87 3.41346 27.0639C1.13896 23.2578 0.00114469 19.7342 0 16.4931C0 11.6334 1.38107 7.76179 4.1432 4.87836C6.90533 1.99494 10.103 0.553223 13.7363 0.553223C17.3695 0.553223 20.5678 1.99494 23.331 4.87836C26.0943 7.76179 27.4748 11.6334 27.4725 16.4931C27.4725 19.7329 26.3353 23.2565 24.0608 27.0639C21.7863 30.8713 18.3448 34.9936 13.7363 39.4309Z" fill="#302A23"/>
</svg>
