<svg width="149" height="59" viewBox="0 0 149 59" fill="none" xmlns="http://www.w3.org/2000/svg">
<path d="M64.4272 44.795V44.9847H63.4054V47.6996H63.1985V44.9847H62.1767V44.795H64.4272Z" fill="#FAF8F3"/>
<path d="M64.4272 44.795V44.9847H63.4054V47.6996H63.1985V44.9847H62.1767V44.795H64.4272Z" fill="#FAF8F3"/>
<path d="M66.9146 44.795L65.8307 46.6082H66.51V46.7657H65.774V47.6996H65.5677V46.7657H64.8235V46.6082H65.511L64.4272 44.795H64.6537L65.677 46.5053L66.7001 44.795H66.9146Z" fill="#FAF8F3"/>
<path d="M66.9146 44.795L65.8307 46.6082H66.51V46.7657H65.774V47.6996H65.5677V46.7657H64.8235V46.6082H65.511L64.4272 44.795H64.6537L65.677 46.5053L66.7001 44.795H66.9146Z" fill="#FAF8F3"/>
<path d="M68.3925 44.795C69.0967 44.795 69.5206 45.1599 69.5206 45.7739C69.5206 46.3847 69.0967 46.7496 68.3925 46.7496H67.5925V47.6996H67.3885V44.795H68.3925ZM68.3925 46.5583C68.9927 46.5583 69.3126 46.2722 69.3126 45.7739C69.3126 45.2724 68.9927 44.9847 68.3925 44.9847H67.5925V46.5583H68.3925Z" fill="#FAF8F3"/>
<path d="M68.3925 44.795C69.0967 44.795 69.5206 45.1599 69.5206 45.7739C69.5206 46.3847 69.0967 46.7496 68.3925 46.7496H67.5925V47.6996H67.3885V44.795H68.3925ZM68.3925 46.5583C68.9927 46.5583 69.3126 46.2722 69.3126 45.7739C69.3126 45.2724 68.9927 44.9847 68.3925 44.9847H67.5925V46.5583H68.3925Z" fill="#FAF8F3"/>
<path d="M72.0079 44.9847H70.5025V46.2594H71.7164V46.4297H70.5025V47.6996H70.3015V46.4297H69.8758V46.2594H70.3015V44.795H72.0079V44.9847Z" fill="#FAF8F3"/>
<path d="M72.0079 44.9847H70.5025V46.2594H71.7164V46.4297H70.5025V47.6996H70.3015V46.4297H69.8758V46.2594H70.3015V44.795H72.0079V44.9847Z" fill="#FAF8F3"/>
<path d="M73.6723 45.8575C74.3019 45.8575 74.6377 46.1645 74.6377 46.7625C74.6377 47.3765 74.2791 47.6996 73.6228 47.6996H72.6002V44.795H72.7947V45.8575H73.6723ZM75.1299 47.6996V44.795H75.3245V47.6996H75.1299ZM73.6265 47.5212C74.1607 47.5212 74.4392 47.264 74.4392 46.7657C74.4392 46.2722 74.1646 46.0359 73.6265 46.0359H72.7947V47.5212H73.6265Z" fill="#FAF8F3"/>
<path d="M73.6723 45.8575C74.3019 45.8575 74.6377 46.1645 74.6377 46.7625C74.6377 47.3765 74.2791 47.6996 73.6228 47.6996H72.6002V44.795H72.7947V45.8575H73.6723ZM75.1299 47.6996V44.795H75.3245V47.6996H75.1299ZM73.6265 47.5212C74.1607 47.5212 74.4392 47.264 74.4392 46.7657C74.4392 46.2722 74.1646 46.0359 73.6265 46.0359H72.7947V47.5212H73.6265Z" fill="#FAF8F3"/>
<path d="M78.4398 44.795H78.6412V47.6996H78.4398V46.3172H76.592V47.6996H76.3907V44.795H76.592V46.1308H78.4398V44.795Z" fill="#FAF8F3"/>
<path d="M78.4398 44.795H78.6412V47.6996H78.4398V46.3172H76.592V47.6996H76.3907V44.795H76.592V46.1308H78.4398V44.795Z" fill="#FAF8F3"/>
<path d="M82.6684 44.795L81.5278 46.6998V47.6996H81.3216V46.6998L80.181 44.795H80.4075L81.4308 46.5053L82.4541 44.795H82.6684Z" fill="#FAF8F3"/>
<path d="M82.6684 44.795L81.5278 46.6998V47.6996H81.3216V46.6998L80.181 44.795H80.4075L81.4308 46.5053L82.4541 44.795H82.6684Z" fill="#FAF8F3"/>
<path d="M84.2577 44.5752C83.8963 44.5752 83.6528 44.3871 83.6449 44.0689H83.806C83.8139 44.3003 83.9946 44.4418 84.2577 44.4418C84.5168 44.4418 84.6975 44.3003 84.7054 44.0689H84.8665C84.8586 44.3871 84.6151 44.5752 84.2577 44.5752ZM83.1422 47.6996V44.7953H83.3426V47.3428L85.2159 44.7953H85.3927V47.6996H85.1924V45.1554L83.319 47.6996H83.1422Z" fill="#FAF8F3"/>
<path d="M84.2577 44.5752C83.8963 44.5752 83.6528 44.3871 83.6449 44.0689H83.806C83.8139 44.3003 83.9946 44.4418 84.2577 44.4418C84.5168 44.4418 84.6975 44.3003 84.7054 44.0689H84.8665C84.8586 44.3871 84.6151 44.5752 84.2577 44.5752ZM83.1422 47.6996V44.7953H83.3426V47.3428L85.2159 44.7953H85.3927V47.6996H85.1924V45.1554L83.319 47.6996H83.1422Z" fill="#FAF8F3"/>
<path d="M89.3042 47.6996L88.2617 46.322H87.6057V47.6996H87.4064V44.795H87.6057V46.1308H88.2655L89.2456 44.795H89.4683L88.4218 46.2095L89.5385 47.6996H89.3042Z" fill="#FAF8F3"/>
<path d="M89.3042 47.6996L88.2617 46.322H87.6057V47.6996H87.4064V44.795H87.6057V46.1308H88.2655L89.2456 44.795H89.4683L88.4218 46.2095L89.5385 47.6996H89.3042Z" fill="#FAF8F3"/>
<path d="M90.331 47.5083H92.026V47.6996H90.1308V44.795H91.9671V44.9847H90.331V46.1308H91.7945V46.3172H90.331V47.5083Z" fill="#FAF8F3"/>
<path d="M90.331 47.5083H92.026V47.6996H90.1308V44.795H91.9671V44.9847H90.331V46.1308H91.7945V46.3172H90.331V47.5083Z" fill="#FAF8F3"/>
<path d="M95.8449 44.795H96.0531V47.6996H92.6181V44.795H92.8263V47.5083H94.2314V44.795H94.4398V47.5083H95.8449V44.795Z" fill="#FAF8F3"/>
<path d="M95.8449 44.795H96.0531V47.6996H92.6181V44.795H92.8263V47.5083H94.2314V44.795H94.4398V47.5083H95.8449V44.795Z" fill="#FAF8F3"/>
<path d="M97.201 47.5083H98.896V47.6996H97.0008V44.795H98.8372V44.9847H97.201V46.1308H98.6646V46.3172H97.201V47.5083Z" fill="#FAF8F3"/>
<path d="M97.201 47.5083H98.896V47.6996H97.0008V44.795H98.8372V44.9847H97.201V46.1308H98.6646V46.3172H97.201V47.5083Z" fill="#FAF8F3"/>
<path d="M101.656 44.795H101.857V47.6996H101.656V46.3172H99.8081V47.6996H99.6067V44.795H99.8081V46.1308H101.656V44.795Z" fill="#FAF8F3"/>
<path d="M101.656 44.795H101.857V47.6996H101.656V46.3172H99.8081V47.6996H99.6067V44.795H99.8081V46.1308H101.656V44.795Z" fill="#FAF8F3"/>
<path d="M102.805 47.6996V44.795H103.042V47.6996H102.805Z" fill="#FAF8F3"/>
<path d="M102.805 47.6996V44.795H103.042V47.6996H102.805Z" fill="#FAF8F3"/>
<path d="M110.622 47.6996L109.721 46.322H109.121V47.6996H108.926V46.322H108.326L107.425 47.6996H107.187L108.162 46.2063L107.261 44.795H107.488L108.322 46.1308H108.926V44.795H109.121V46.1308H109.721L110.559 44.795H110.781L109.885 46.2063L110.859 47.6996H110.622Z" fill="#FAF8F3"/>
<path d="M110.622 47.6996L109.721 46.322H109.121V47.6996H108.926V46.322H108.326L107.425 47.6996H107.187L108.162 46.2063L107.261 44.795H107.488L108.322 46.1308H108.926V44.795H109.121V46.1308H109.721L110.559 44.795H110.781L109.885 46.2063L110.859 47.6996H110.622Z" fill="#FAF8F3"/>
<path d="M111.333 47.6996V44.795H111.544V47.3427L113.516 44.795H113.702V47.6996H113.491V45.1551L111.519 47.6996H111.333Z" fill="#FAF8F3"/>
<path d="M111.333 47.6996V44.795H111.544V47.3427L113.516 44.795H113.702V47.6996H113.491V45.1551L111.519 47.6996H111.333Z" fill="#FAF8F3"/>
<path d="M114.896 44.795H116.663V47.6741H116.467V44.983H115.073L115.038 46.041C114.996 47.2009 114.823 47.6996 114.369 47.6996C114.307 47.6996 114.249 47.6948 114.176 47.6741L114.199 47.4813C114.249 47.494 114.284 47.4972 114.326 47.4972C114.676 47.4972 114.819 47.0814 114.857 46.0458L114.896 44.795Z" fill="#FAF8F3"/>
<path d="M114.896 44.795H116.663V47.6741H116.467V44.983H115.073L115.038 46.041C114.996 47.2009 114.823 47.6996 114.369 47.6996C114.307 47.6996 114.249 47.6948 114.176 47.6741L114.199 47.4813C114.249 47.494 114.284 47.4972 114.326 47.4972C114.676 47.4972 114.819 47.0814 114.857 46.0458L114.896 44.795Z" fill="#FAF8F3"/>
<path d="M118.914 47.6996C118.098 47.6996 117.492 47.0784 117.492 46.2465C117.492 45.4162 118.098 44.795 118.914 44.795C119.726 44.795 120.335 45.413 120.335 46.2465C120.335 47.0816 119.726 47.6996 118.914 47.6996ZM118.914 47.5078C119.609 47.5078 120.132 46.9722 120.132 46.2465C120.132 45.5224 119.609 44.9868 118.914 44.9868C118.215 44.9868 117.692 45.5224 117.692 46.2465C117.692 46.9722 118.215 47.5078 118.914 47.5078Z" fill="#FAF8F3"/>
<path d="M118.914 47.6996C118.098 47.6996 117.492 47.0784 117.492 46.2465C117.492 45.4162 118.098 44.795 118.914 44.795C119.726 44.795 120.335 45.413 120.335 46.2465C120.335 47.0816 119.726 47.6996 118.914 47.6996ZM118.914 47.5078C119.609 47.5078 120.132 46.9722 120.132 46.2465C120.132 45.5224 119.609 44.9868 118.914 44.9868C118.215 44.9868 117.692 45.5224 117.692 46.2465C117.692 46.9722 118.215 47.5078 118.914 47.5078Z" fill="#FAF8F3"/>
<path d="M122.22 44.5752C121.84 44.5752 121.583 44.3871 121.575 44.0689H121.745C121.753 44.3003 121.943 44.4418 122.22 44.4418C122.493 44.4418 122.683 44.3003 122.691 44.0689H122.861C122.853 44.3871 122.596 44.5752 122.22 44.5752ZM121.046 47.6996V44.7953H121.257V47.3428L123.229 44.7953H123.415V47.6996H123.204V45.1554L121.232 47.6996H121.046Z" fill="#FAF8F3"/>
<path d="M122.22 44.5752C121.84 44.5752 121.583 44.3871 121.575 44.0689H121.745C121.753 44.3003 121.943 44.4418 122.22 44.4418C122.493 44.4418 122.683 44.3003 122.691 44.0689H122.861C122.853 44.3871 122.596 44.5752 122.22 44.5752ZM121.046 47.6996V44.7953H121.257V47.3428L123.229 44.7953H123.415V47.6996H123.204V45.1554L121.232 47.6996H121.046Z" fill="#FAF8F3"/>
<path d="M127.326 47.6996L126.284 46.322H125.628V47.6996H125.429V44.795H125.628V46.1308H126.288L127.268 44.795H127.49L126.444 46.2095L127.561 47.6996H127.326Z" fill="#FAF8F3"/>
<path d="M127.326 47.6996L126.284 46.322H125.628V47.6996H125.429V44.795H125.628V46.1308H126.288L127.268 44.795H127.49L126.444 46.2095L127.561 47.6996H127.326Z" fill="#FAF8F3"/>
<path d="M129.219 47.6996C128.403 47.6996 127.798 47.0784 127.798 46.2465C127.798 45.4162 128.403 44.795 129.219 44.795C130.031 44.795 130.64 45.413 130.64 46.2465C130.64 47.0816 130.031 47.6996 129.219 47.6996ZM129.219 47.5078C129.914 47.5078 130.437 46.9722 130.437 46.2465C130.437 45.5224 129.914 44.9868 129.219 44.9868C128.52 44.9868 127.997 45.5224 127.997 46.2465C127.997 46.9722 128.52 47.5078 129.219 47.5078Z" fill="#FAF8F3"/>
<path d="M129.219 47.6996C128.403 47.6996 127.798 47.0784 127.798 46.2465C127.798 45.4162 128.403 44.795 129.219 44.795C130.031 44.795 130.64 45.413 130.64 46.2465C130.64 47.0816 130.031 47.6996 129.219 47.6996ZM129.219 47.5078C129.914 47.5078 130.437 46.9722 130.437 46.2465C130.437 45.5224 129.914 44.9868 129.219 44.9868C128.52 44.9868 127.997 45.5224 127.997 46.2465C127.997 46.9722 128.52 47.5078 129.219 47.5078Z" fill="#FAF8F3"/>
<path d="M134.194 47.6996H134.003L133.999 45.213L132.878 47.3138H132.782L131.661 45.2226V47.6996H131.47V44.795H131.634L132.832 47.0406L134.029 44.795H134.19L134.194 47.6996Z" fill="#FAF8F3"/>
<path d="M134.194 47.6996H134.003L133.999 45.213L132.878 47.3138H132.782L131.661 45.2226V47.6996H131.47V44.795H131.634L132.832 47.0406L134.029 44.795H134.19L134.194 47.6996Z" fill="#FAF8F3"/>
<path d="M135.26 44.795H137.51V47.6996H137.311V44.9847H135.459V47.6996H135.26V44.795Z" fill="#FAF8F3"/>
<path d="M135.26 44.795H137.51V47.6996H137.311V44.9847H135.459V47.6996H135.26V44.795Z" fill="#FAF8F3"/>
<path d="M138.739 44.795H140.59V47.6741H140.384V44.983H138.924L138.888 46.041C138.843 47.2009 138.662 47.6996 138.186 47.6996C138.121 47.6996 138.061 47.6948 137.984 47.6741L138.008 47.4813C138.061 47.494 138.097 47.4972 138.142 47.4972C138.509 47.4972 138.658 47.0814 138.698 46.0458L138.739 44.795Z" fill="#FAF8F3"/>
<path d="M138.739 44.795H140.59V47.6741H140.384V44.983H138.924L138.888 46.041C138.843 47.2009 138.662 47.6996 138.186 47.6996C138.121 47.6996 138.061 47.6948 137.984 47.6741L138.008 47.4813C138.061 47.494 138.097 47.4972 138.142 47.4972C138.509 47.4972 138.658 47.0814 138.698 46.0458L138.739 44.795Z" fill="#FAF8F3"/>
<path d="M141.738 47.5083H143.433V47.6996H141.538V44.795H143.374V44.9847H141.738V46.1308H143.201V46.3172H141.738V47.5083Z" fill="#FAF8F3"/>
<path d="M141.738 47.5083H143.433V47.6996H141.538V44.795H143.374V44.9847H141.738V46.1308H143.201V46.3172H141.738V47.5083Z" fill="#FAF8F3"/>
<path d="M146.041 47.6996L145 46.322H144.343V47.6996H144.144V44.795H144.343V46.1308H145.003L145.983 44.795H146.206L145.158 46.2095L146.276 47.6996H146.041Z" fill="#FAF8F3"/>
<path d="M146.041 47.6996L145 46.322H144.343V47.6996H144.144V44.795H144.343V46.1308H145.003L145.983 44.795H146.206L145.158 46.2095L146.276 47.6996H146.041Z" fill="#FAF8F3"/>
<path d="M148.036 47.6996C147.231 47.6996 146.631 47.0816 146.631 46.2465C146.631 45.413 147.231 44.795 148.036 44.795C148.42 44.795 148.763 44.9249 149 45.1912L148.876 45.3259C148.644 45.085 148.362 44.9868 148.044 44.9868C147.35 44.9868 146.828 45.5271 146.828 46.2465C146.828 46.9675 147.35 47.5078 148.044 47.5078C148.362 47.5078 148.644 47.4048 148.876 47.164L149 47.2987C148.763 47.5649 148.42 47.6996 148.036 47.6996Z" fill="#FAF8F3"/>
<path d="M148.036 47.6996C147.231 47.6996 146.631 47.0816 146.631 46.2465C146.631 45.413 147.231 44.795 148.036 44.795C148.42 44.795 148.763 44.9249 149 45.1912L148.876 45.3259C148.644 45.085 148.362 44.9868 148.044 44.9868C147.35 44.9868 146.828 45.5271 146.828 46.2465C146.828 46.9675 147.35 47.5078 148.044 47.5078C148.362 47.5078 148.644 47.4048 148.876 47.164L149 47.2987C148.763 47.5649 148.42 47.6996 148.036 47.6996Z" fill="#FAF8F3"/>
<path d="M105.055 48.4257V44.0689H105.292V48.4257H105.055Z" fill="#FAF8F3"/>
<path d="M105.055 48.4257V44.0689H105.292V48.4257H105.055Z" fill="#FAF8F3"/>
<path d="M62.1767 16.9064V16.8388H69.0122V16.9064C68.2054 17.2554 67.6875 17.7848 67.4587 18.4941C67.2297 19.1923 67.1152 20.1214 67.1152 21.2813V31.416C67.1152 34.0735 67.6548 36.1619 68.7341 37.6826C69.8134 39.1917 71.525 39.9463 73.8689 39.9463C74.9809 39.9463 76.0002 39.7708 76.9269 39.423C77.8643 39.0622 78.6711 38.5274 79.347 37.8171C80.0338 37.097 80.5627 36.2193 80.9333 35.1826C81.3148 34.1467 81.5057 32.9474 81.5057 31.5849V21.788C81.5057 20.4704 81.2876 19.4175 80.8515 18.6293C80.4155 17.8297 79.7994 17.2554 79.0036 16.9064V16.8388H84.9561V16.9064C84.1494 17.2554 83.528 17.8297 83.0919 18.6293C82.6667 19.4288 82.4541 20.4818 82.4541 21.788V31.7877C82.4541 33.3303 82.2307 34.7036 81.7836 35.9093C81.3367 37.1035 80.7153 38.1041 79.9193 38.9161C79.1236 39.7265 78.1861 40.3466 77.1067 40.7731C76.0274 41.1897 74.8609 41.3981 73.6073 41.3981C70.5439 41.3981 68.189 40.5828 66.5428 38.949C64.9076 37.3168 64.09 34.907 64.09 31.7201V21.2813C64.09 20.1327 63.97 19.2036 63.7302 18.4941C63.5013 17.7848 62.9834 17.2554 62.1767 16.9064ZM69.1919 12.3458C69.1919 11.7939 69.3719 11.3154 69.7317 10.9099C70.1024 10.5046 70.5766 10.3018 71.1543 10.3018C71.7103 10.3018 72.1791 10.5046 72.5608 10.9099C72.9422 11.3154 73.1329 11.7939 73.1329 12.3458C73.1329 12.9201 72.9422 13.4099 72.5608 13.8152C72.1791 14.2207 71.7103 14.4233 71.1543 14.4233C70.5766 14.4233 70.1024 14.2207 69.7317 13.8152C69.3719 13.4099 69.1919 12.9201 69.1919 12.3458ZM75.1771 12.3458C75.1771 11.7939 75.3734 11.3154 75.7658 10.9099C76.1583 10.5046 76.6325 10.3018 77.1885 10.3018C77.7445 10.3018 78.2132 10.5046 78.5949 10.9099C78.9763 11.3154 79.1672 11.7939 79.1672 12.3458C79.1672 12.9201 78.9763 13.4099 78.5949 13.8152C78.2132 14.2207 77.7445 14.4233 77.1885 14.4233C76.6325 14.4233 76.1583 14.2207 75.7658 13.8152C75.3734 13.4099 75.1771 12.9201 75.1771 12.3458Z" fill="#FAF8F3"/>
<path d="M86.8233 41.0123V40.9456C87.6303 40.5989 88.2519 40.0357 88.6881 39.2528C89.1243 38.4601 89.3424 37.4103 89.3424 36.1016V21.3869C89.3424 20.2473 89.2225 19.3254 88.9826 18.6214C88.7535 17.9176 88.2355 17.3924 87.4285 17.046V16.9789H92.7283L101.136 36.4549L108.971 16.9789H113.927V17.046C113.12 17.3924 112.597 17.9176 112.357 18.6214C112.128 19.3141 112.013 20.236 112.013 21.3869V36.5216C112.013 37.6609 112.188 38.6001 112.537 39.3374C112.886 40.0634 113.464 40.5989 114.271 40.9456V41.0123H106.861V40.9456C107.668 40.5989 108.24 40.0634 108.578 39.3374C108.927 38.6001 109.102 37.6609 109.102 36.5216V18.9735L100.089 41.3981H99.9581L90.2747 18.9735V36.1016C90.2747 37.4103 90.4928 38.4601 90.929 39.2528C91.3652 40.0357 91.9868 40.5989 92.7937 40.9456V41.0123H86.8233Z" fill="#FAF8F3"/>
<path d="M117.071 41.0165V40.9498C117.887 40.603 118.41 40.0837 118.642 39.3918C118.884 38.6869 119.005 37.7655 119.005 36.6259V21.3877C119.005 20.2478 118.884 19.3258 118.642 18.6217C118.41 17.9178 117.887 17.3924 117.071 17.046V16.9789H123.98V17.046C123.165 17.3924 122.636 17.9178 122.393 18.6217C122.162 19.3145 122.046 20.2366 122.046 21.3877V36.6259C122.046 37.7655 122.162 38.6869 122.393 39.3918C122.636 40.0837 123.165 40.603 123.98 40.9498V41.0165H117.071Z" fill="#FAF8F3"/>
<path d="M126.034 23.6131L127.168 16.5974C127.343 16.7097 127.579 16.7772 127.875 16.7997C128.171 16.8223 128.478 16.8334 128.796 16.8334H146.238C146.556 16.8334 146.857 16.8223 147.142 16.7997C147.439 16.7772 147.673 16.7097 147.849 16.5974L149 23.6131H148.917C148.381 22.6461 147.887 21.7972 147.439 21.0664C146.988 20.3244 146.501 19.7061 145.975 19.2113C145.449 18.7167 144.857 18.3456 144.199 18.0983C143.553 17.8396 142.758 17.7104 141.816 17.7104H139.021V36.868C139.021 38.0161 139.169 38.8972 139.465 39.5163C139.761 40.1239 140.309 40.6005 141.109 40.9494V41.0165H133.908V40.9494C134.719 40.6005 135.267 40.1239 135.552 39.5163C135.848 38.9087 135.996 38.0259 135.996 36.868V17.7104H133.201C132.259 17.7104 131.459 17.8396 130.801 18.0983C130.155 18.3456 129.568 18.7167 129.042 19.2113C128.516 19.7061 128.029 20.3244 127.579 21.0664C127.13 21.7972 126.637 22.6461 126.1 23.6131H126.034Z" fill="#FAF8F3"/>
<path fill-rule="evenodd" clip-rule="evenodd" d="M52.8408 25.9324L52.8399 26.1407C52.7987 30.6953 51.4096 35.0201 48.9871 38.6233C46.0259 43.2036 41.565 46.6196 36.3387 48.0702L29.6275 50.6149L26.6178 58.9493L23.6081 50.6149L17.6423 48.3528C11.9251 47.1056 7.02702 43.5328 3.85267 38.622C1.43072 35.019 0.0421076 30.6947 0.000988416 26.1407L0 25.9324V0C8.55378 0 15.488 7.10534 15.4881 15.8702V44.9937C16.7502 45.4778 18.0717 45.8279 19.4373 46.0282L23.6081 44.4469L26.6178 36.1123L29.6275 44.4469L33.6841 45.9847C34.9502 45.7793 36.1771 45.4447 37.3527 44.9937V15.8702C37.3527 7.10534 44.2869 0 52.8408 0V25.9324ZM25.1604 46.0376L21.2219 47.5307L25.1604 49.0242L26.6178 53.0598L28.0753 49.0242L32.0137 47.5307L28.0753 46.0376L26.6178 42.0018L25.1604 46.0376ZM9.01848 35.808C9.01848 38.9185 10.2453 42.0304 12.9393 43.4641V15.8702C12.9393 12.1412 11.4369 8.77166 9.01848 6.36266V35.808ZM43.8225 6.36252C41.4039 8.77151 39.9014 12.1411 39.9014 15.8702V43.4641C42.5955 42.0304 43.8225 38.9184 43.8225 35.8077V6.36252ZM2.54869 25.4201C2.54869 29.7606 3.79803 33.7819 5.93088 37.1093C6.10451 37.3686 6.2842 37.6237 6.46966 37.8744V8.55435C6.46966 5.97436 5.15074 3.43118 2.68739 2.89801L2.54869 2.86886V25.4201ZM50.292 2.86886C47.7373 3.39178 46.3712 6.02948 46.3712 8.69907V37.8742C46.5562 37.6243 46.7352 37.3699 46.9084 37.1114C49.042 33.7836 50.292 29.7616 50.292 25.4201V2.86886Z" fill="#ECE7DA"/>
</svg>
