<svg width="29" height="30" viewBox="0 0 29 30" fill="none" xmlns="http://www.w3.org/2000/svg">
<path d="M28.2653 25.6476C28.0038 26.4326 27.4862 27.1158 26.7892 27.5959C26.001 28.251 25.0843 28.7478 24.0934 29.0569C23.1024 29.3659 22.0572 29.4811 21.0195 29.3955L20.5003 29.3551C18.3546 29.0794 16.2861 28.4026 14.4114 27.3628C13.9568 27.1127 13.514 26.8775 12.9878 26.5924C10.8077 25.1736 8.84041 23.474 7.1409 21.541C4.91848 19.1838 3.16499 16.4543 1.9675 13.4881C1.30703 11.8693 0.914569 10.1609 0.804393 8.42497C0.598787 6.60898 0.966957 4.77521 1.86092 3.16264C2.39319 2.44039 3.02478 1.79077 3.73845 1.23153C4.06767 0.937961 4.45491 0.711029 4.87713 0.564247C5.29935 0.417464 5.74792 0.353831 6.19613 0.377135C6.67961 0.464639 7.13998 0.644091 7.55025 0.904967C7.96052 1.16584 8.31242 1.50289 8.58532 1.89634C9.2054 2.6744 9.94385 3.4336 10.6063 4.22899L11.4652 5.18563C11.9769 5.6928 12.2622 6.37324 12.2577 7.08026C12.2043 7.72732 11.9034 8.33128 11.4131 8.77734C11.1014 9.09262 10.7729 9.39218 10.429 9.67481L10.0906 9.96426C9.89524 10.1124 9.73667 10.3004 9.6264 10.5148C9.53278 10.7237 9.48728 10.9503 9.49712 11.1784C9.68244 11.816 10.0074 12.4083 10.452 12.9145C11.1228 13.9547 11.7754 14.8658 12.5046 15.9401C13.778 17.6087 15.3322 19.0611 17.1032 20.2375C17.2698 20.3908 17.475 20.5008 17.7009 20.5563C17.9015 20.6014 18.1084 20.588 18.2999 20.5159C18.8893 20.2692 19.4248 19.9175 19.8783 19.4794C20.4528 18.9009 21.2432 18.5666 22.0741 18.5456C22.4693 18.5778 22.8538 18.6858 23.2048 18.8633C23.5558 19.0408 23.8662 19.2842 24.1176 19.579C24.4322 19.8861 24.7273 20.2098 25.0031 20.5503L25.4081 21.0408L25.8316 21.5032C26.0886 21.7955 26.3348 22.0589 26.5761 22.3639C27.0256 22.8013 27.4385 23.268 27.8149 23.7642C28.1955 24.3187 28.3548 24.9879 28.2653 25.6476Z" fill="#FAF8F3"/>
</svg>
